<svg id="Layer_1" data-name="Layer 1" xmlns="http://www.w3.org/2000/svg" viewBox="0 0 735 612"><defs><style>.cls-1{fill:none;stroke:#06a1f9;}.cls-1,.cls-10,.cls-11,.cls-12,.cls-13,.cls-14,.cls-15,.cls-16,.cls-17,.cls-18,.cls-19,.cls-20,.cls-9{stroke-miterlimit:10;}.cls-2{font-size:14px;font-family:Gesta-Bold, Gesta;}.cls-3,.cls-7{font-weight:700;}.cls-4{letter-spacing:-0.01em;}.cls-5{font-family:Gesta-Italic, Gesta;font-style:italic;}.cls-6{letter-spacing:-0.01em;}.cls-7{letter-spacing:-0.01em;}.cls-8{letter-spacing:0em;}.cls-9{fill:#06a1f9;}.cls-10,.cls-11,.cls-12,.cls-13,.cls-14,.cls-15,.cls-16,.cls-17,.cls-18,.cls-19,.cls-20,.cls-9{stroke:#fff;}.cls-10{fill:#1576ac;}.cls-11{fill:#27abce;}.cls-12{fill:#27c3f3;}.cls-13{fill:#70ddfb;}.cls-14{fill:#8c9be1;}.cls-15{fill:#7f6fb1;}.cls-16{fill:#1f2c5c;}.cls-17{fill:#2f4598;}.cls-18{fill:#305af2;}.cls-19{fill:#3f58ce;}.cls-20{fill:#5d70d4;}</style></defs><title>Artboard 1</title><polyline class="cls-1" points="408.5 137.5 415.5 105.5 437.5 86.5"/><polyline class="cls-1" points="450.22 154.33 463.5 131.5 488.5 120.5"/><polyline class="cls-1" points="329.83 489 321.5 519.5 337.5 534.5"/><polyline class="cls-1" points="218.62 365.95 186.5 378.5 159.5 372.5"/><polyline class="cls-1" points="214.73 280.15 180.5 272.5 162.5 262.5"/><line class="cls-1" x1="226.73" y1="248.22" x2="176.5" y2="227.5"/><polyline class="cls-1" points="239.14 221.51 204.5 205.5 193.5 194.5"/><polyline class="cls-1" points="258.44 199.06 239.5 185.5 225.5 162.5"/><polyline class="cls-1" points="283.2 173.81 266.5 160.5 251.5 128.5"/><polyline class="cls-1" points="331.91 157.87 322.5 106.5 302.5 94.5"/><line class="cls-1" x1="372.13" y1="140.58" x2="368.5" y2="91.5"/><text class="cls-2" transform="translate(503.67 100.67)"><tspan class="cls-3">Ca<tspan class="cls-4" x="14.08" y="0">f</tspan><tspan x="18.63" y="0">eteria</tspan></tspan><tspan class="cls-5"><tspan x="0" y="16.8">3%</tspan></tspan></text><text class="cls-2" transform="translate(605.67 323.67)"><tspan class="cls-3">Class<tspan class="cls-4" x="28.76" y="0">r</tspan><tspan x="33.56" y="0">oom</tspan></tspan><tspan class="cls-5"><tspan x="0" y="16.8">35%</tspan></tspan></text><text class="cls-2" transform="translate(348.67 540.67)"><tspan class="cls-3">Corridor</tspan><tspan class="cls-5"><tspan x="0" y="16.8">22%</tspan></tspan></text><text class="cls-2" transform="translate(125.88 365.67)"><tspan class="cls-3">Gym</tspan><tspan class="cls-5"><tspan x="2.77" y="16.8">10%</tspan></tspan></text><text class="cls-2" transform="translate(74.38 255.67)"><tspan class="cls-3">Gym <tspan class="cls-6" x="29.3" y="0">A</tspan><tspan x="37.42" y="0">udience</tspan></tspan><tspan class="cls-5"><tspan x="63.04" y="16.8">6%</tspan></tspan></text><text class="cls-2" transform="translate(123.9 216.79) rotate(-0.34)"><tspan class="cls-3">Kitchen</tspan><tspan class="cls-5"><tspan x="27.54" y="16.8">1%</tspan></tspan></text><text class="cls-2" transform="translate(146.47 180.67)"><tspan class="cls-3">Library</tspan><tspan class="cls-5"><tspan x="22.89" y="16.8">4%</tspan></tspan></text><text class="cls-2" transform="translate(182.76 147.67)"><tspan class="cls-3">Lob<tspan class="cls-6" x="20.44" y="0">b</tspan><tspan x="27.17" y="0">y</tspan></tspan><tspan class="cls-5"><tspan x="17.11" y="16.8">2%</tspan></tspan></text><text class="cls-2" transform="translate(185.96 103.67)"><tspan class="cls-7">M<tspan class="cls-8" x="10.67" y="0">echanical</tspan></tspan><tspan class="cls-5"><tspan x="45.4" y="16.8">4%</tspan></tspan></text><text class="cls-2" transform="translate(260.96 82.67)"><tspan class="cls-3">Office</tspan><tspan class="cls-5"><tspan x="16.46" y="16.8">6%</tspan></tspan></text><text class="cls-2" transform="translate(324.8 63.67)"><tspan class="cls-3">Rest<tspan class="cls-4" x="24.95" y="0">r</tspan><tspan x="29.75" y="0">oom</tspan></tspan><tspan class="cls-5"><tspan x="37.07" y="16.8">2%</tspan></tspan></text><text class="cls-2" transform="translate(446.67 65.67)"><tspan class="cls-3"><tspan class="cls-6">A</tspan><tspan x="8.12" y="0">uditorium</tspan></tspan><tspan class="cls-5"><tspan x="0" y="16.8">5%</tspan></tspan></text><path class="cls-9" d="M383.33,314.22,356.93,126.43a199.82,199.82,0,0,1,26.39-1.85Z"/><path class="cls-10" d="M383.33,314.22,291.39,148.36c22-12.19,40.65-18.43,65.55-21.93Z"/><path class="cls-11" d="M383.33,314.22,251.59,177.81a187.56,187.56,0,0,1,39.79-29.45Z"/><path class="cls-12" d="M383.33,314.22,236,194.88a174.88,174.88,0,0,1,15.64-17.07Z"/><path class="cls-13" d="M383.33,314.22,211.46,234.08A175.12,175.12,0,0,1,236,194.88Z"/><path class="cls-14" d="M383.33,314.22l-177-68c1.5-3.91,3.4-8.39,5.17-12.18Z"/><path class="cls-15" d="M383.33,314.22H193.69c0-25.14,3.59-44.49,12.6-68Z"/><path class="cls-16" d="M383.33,314.22,229.91,425.69c-24.62-33.89-36.22-69.57-36.22-111.47Z"/><path class="cls-17" d="M383.33,314.22l83.13,170.44a189.42,189.42,0,0,1-236.55-59Z"/><path class="cls-18" d="M383.33,314.22l89-167.44c92.47,49.17,127.58,164,78.41,256.47-19.67,37-46.65,63.05-84.31,81.42Z"/><path class="cls-19" d="M383.33,314.22l58.6-180.35a166.67,166.67,0,0,1,30.43,12.92Z"/><path class="cls-20" d="M383.33,314.22V124.58a180.28,180.28,0,0,1,58.6,9.28Z"/><path class="cls-1" d="M573,326.49s23.5,1,26.5,0"/></svg>