<?xml version="1.0" encoding="utf-8"?>
<!-- Generator: Adobe Illustrator 22.1.0, SVG Export Plug-In . SVG Version: 6.00 Build 0)  -->
<svg version="1.1" id="Layer_1" xmlns="http://www.w3.org/2000/svg" xmlns:xlink="http://www.w3.org/1999/xlink" x="0px" y="0px"
	 viewBox="0 0 735 612" style="enable-background:new 0 0 735 612;" xml:space="preserve">
<style type="text/css">
	.st0{fill:#06A1F9;}
	.st1{enable-background:new    ;}
	.st2{fill:#5D70D4;}
	.st3{fill:#FFFFFF;}
	.st4{fill:#1576AC;}
	.st5{fill:#27ABCE;}
	.st6{fill:#27C3F3;}
	.st7{fill:#70DDFB;}
	.st8{fill:#8C9BE1;}
	.st9{fill:#7F6FB1;}
	.st10{fill:#1F2C5C;}
	.st11{fill:#2F4598;}
	.st12{fill:#305AF2;}
	.st13{fill:#30449E;}
	.st14{fill:#3F58CE;}
	.st15{stroke:#000000;stroke-width:0.5;stroke-miterlimit:10;}
</style>
<g>
	<polygon class="st0" points="414.4,144.5 413.5,144.1 422.7,119.2 444.7,105.6 445.2,106.4 423.6,119.9 	"/>
</g>
<title>Artboard 1</title>
<g>
	<polygon class="st0" points="398.1,142.2 398,115.7 410.1,97.4 410.9,98 399,116 399.1,142.2 	"/>
</g>
<g>
	<polygon class="st0" points="417.4,537.5 398,526.7 398.6,494.8 399.6,494.8 399,526.2 417.9,536.6 	"/>
</g>
<g>
	<polygon class="st0" points="219.4,435.7 192.3,429.7 192.5,428.7 219.4,434.7 251.3,422.2 251.7,423.1 	"/>
</g>
<g>
	<polygon class="st0" points="219.2,346.4 184,345.2 164.5,338.6 164.8,337.7 184.3,344.2 219.3,345.4 	"/>
</g>
<g>
	
		<rect x="187.1" y="275.6" transform="matrix(0.1163 -0.9932 0.9932 0.1163 -134.8693 453.8603)" class="st0" width="1" height="54.3"/>
</g>
<g>
	<polygon class="st0" points="219.3,279.1 182.8,267.6 170.4,258.1 171,257.3 183.3,266.7 219.6,278.1 	"/>
</g>
<g>
	<polygon class="st0" points="228.2,246.4 207.1,235.9 189.6,215.5 190.3,214.9 207.8,235.2 228.6,245.5 	"/>
</g>
<g>
	<polygon class="st0" points="243.9,218.2 222.1,199.3 212.1,179.2 213,178.8 222.9,198.7 244.6,217.5 	"/>
</g>
<g>
	<polygon class="st0" points="285.1,189.1 267.8,146.7 251.2,130.8 251.9,130.1 268.7,146.3 286,188.7 	"/>
</g>
<g>
	
		<rect x="311.4" y="105.8" transform="matrix(0.938 -0.3465 0.3465 0.938 -25.8723 116.1784)" class="st0" width="1" height="49.2"/>
</g>
<g>
	<path d="M412,63c0.7-0.1,1.9-0.3,2.9-0.3c2,0,3.5,0.7,3.5,2.8c0,1.5-0.7,2.2-1.7,2.6c0.5,1.1,1.3,2.5,2,3.7l0,0h-2.1
		c-0.6-1.1-1.3-2.4-1.8-3.5c-0.4,0-0.8,0-1.1-0.1v3.5H412V63z M414.8,67.1c1.1,0,1.8-0.3,1.8-1.4c0-1.1-0.6-1.4-1.7-1.4
		c-0.3,0-0.8,0-1.1,0.1V67C414.1,67,414.6,67.1,414.8,67.1z"/>
	<path d="M422.1,65.3c1.7,0,2.6,1,2.6,2.9c0,0.3,0,0.8-0.1,1.1H421c0.1,0.9,0.5,1.3,1.4,1.3c0.6,0,1.3-0.2,1.8-0.4l0.5,1.3
		c-0.7,0.3-1.5,0.5-2.3,0.5c-2,0-3-1.1-3-3.3C419.3,66.5,420.3,65.3,422.1,65.3z M423.1,68c0-0.8-0.3-1.2-1-1.2
		c-0.7,0-1,0.5-1.1,1.2H423.1z"/>
	<path d="M426.4,66.8h-1v-1.2l1-0.1V65c0-1.5,0.9-2.3,2.4-2.3c0.4,0,0.7,0,1,0.1l-0.1,1.4c-0.2,0-0.6-0.1-0.8-0.1
		c-0.7,0-0.9,0.2-0.9,0.8v0.4h1.4v1.4H428v5.1h-1.7V66.8z"/>
	<path d="M430.5,65.4h1.2l0.2,0.7c0.5-0.6,1.1-0.9,1.8-0.9c0.2,0,0.5,0,0.8,0.1l-0.1,1.5c-0.3,0-0.5-0.1-0.7-0.1
		c-0.7,0-1.1,0.2-1.5,0.5v4.6h-1.7V65.4z"/>
	<path d="M435.2,62.9h1.7v1.6h-1.7V62.9z M435.2,65.4h1.7v6.5h-1.7V65.4z"/>
	<path d="M440.7,73.1c0.6,0,1.3-0.1,1.3-1v-0.4c-0.4,0.2-0.8,0.3-1.3,0.3c-1.7,0-2.5-1.2-2.5-3.3c0-2.4,1.1-3.4,3-3.4
		c1,0,1.9,0.3,2.5,0.5V72c0,2.1-1.2,2.6-3,2.6c-0.7,0-1.3-0.1-1.8-0.2L439,73C439.4,73,440.1,73.1,440.7,73.1z M442,70.2v-3.5
		c-0.3-0.1-0.6-0.1-0.9-0.1c-1,0-1.3,0.5-1.3,1.9c0,1.3,0.3,1.8,1.2,1.8C441.3,70.5,441.7,70.4,442,70.2z"/>
	<path d="M447.6,65.3c1.7,0,2.6,1,2.6,2.9c0,0.3,0,0.8-0.1,1.1h-3.6c0.1,0.9,0.5,1.3,1.4,1.3c0.6,0,1.3-0.2,1.8-0.4l0.5,1.3
		c-0.7,0.3-1.5,0.5-2.3,0.5c-2,0-3-1.1-3-3.3C444.8,66.5,445.8,65.3,447.6,65.3z M448.6,68c0-0.8-0.3-1.2-1-1.2
		c-0.7,0-1,0.5-1.1,1.2H448.6z"/>
	<path d="M451.4,65.4h1.2l0.2,0.7c0.5-0.6,1.1-0.9,1.8-0.9c0.2,0,0.5,0,0.8,0.1l-0.1,1.5c-0.3,0-0.5-0.1-0.7-0.1
		c-0.7,0-1.1,0.2-1.5,0.5v4.6h-1.7V65.4z"/>
	<path d="M458.5,67.9c0.4,0,0.6,0,1,0.1v-0.2c0-0.7-0.3-1-1.2-1c-0.5,0-1.3,0.1-1.8,0.2l-0.3-1.4c0.6-0.1,1.4-0.3,2.2-0.3
		c1.7,0,2.7,0.7,2.7,2.3v4.3h-1.2l-0.2-0.5c-0.4,0.3-1,0.6-1.8,0.6c-1.2,0-2.2-0.7-2.2-2C455.7,68.7,456.7,67.9,458.5,67.9z
		 M458.3,70.7c0.4,0,0.9-0.2,1.1-0.4v-1.2c-0.3,0-0.7-0.1-0.9-0.1c-0.7,0-1.1,0.3-1.1,0.8C457.4,70.4,457.8,70.7,458.3,70.7z"/>
	<path d="M462.9,66.8h-1v-1.2l1-0.1l0.1-1.9h1.5v1.8h1.6v1.4h-1.6V70c0,0.5,0.2,0.6,0.5,0.6c0.3,0,0.7-0.1,0.9-0.2l0.4,1.3
		c-0.4,0.2-1,0.3-1.6,0.3c-1.1,0-1.9-0.6-1.9-1.9V66.8z"/>
	<path d="M467.4,62.9h1.7v1.6h-1.7V62.9z M467.4,65.4h1.7v6.5h-1.7V65.4z"/>
	<path d="M473.2,65.3c2.2,0,3,1.3,3,3.4c0,2.1-0.8,3.4-3,3.4s-3-1.3-3-3.4C470.2,66.6,471,65.3,473.2,65.3z M473.2,70.6
		c1.1,0,1.3-0.9,1.3-1.9c0-1.1-0.1-1.9-1.3-1.9s-1.3,0.9-1.3,1.9C471.9,69.7,472,70.6,473.2,70.6z"/>
	<path d="M477.3,65.4h1.2l0.1,0.5c0.6-0.4,1.2-0.6,2-0.6c1.5,0,2.2,1,2.2,2.2v4.4h-1.7v-4.2c0-0.6-0.3-1-0.9-1
		c-0.4,0-0.9,0.2-1.2,0.3v4.8h-1.7V65.4z"/>
</g>
<g class="st1">
	<path d="M411.2,87.6c0.7,0.2,1.4,0.4,2.2,0.4c0.7,0,1.3-0.1,1.7-0.6c0.4-0.4,0.5-1.1,0.5-1.6c0-0.9-0.6-1.3-1.5-1.3h-1l0.2-0.9h1
		c0.6,0,1.1-0.2,1.4-0.6c0.3-0.3,0.4-0.8,0.4-1.2c0-1-0.6-1.3-1.5-1.3c-0.7,0-1.4,0.2-2,0.4l-0.3-0.8c0.7-0.3,1.5-0.5,2.3-0.5
		c1.4,0,2.5,0.7,2.5,2.1c0,1-0.6,2.1-1.6,2.4V84c0.7,0.3,1,0.8,1,1.8c0,0.8-0.3,1.6-0.8,2.2c-0.6,0.6-1.4,0.9-2.5,0.9
		c-0.8,0-1.6-0.2-2.4-0.4L411.2,87.6z"/>
	<path d="M418.2,82.1c0-0.6,0.2-1.2,0.5-1.8c0.4-0.5,0.9-0.8,1.6-0.8c1,0,1.7,0.6,1.7,1.7c0,0.6-0.2,1.2-0.5,1.8
		c-0.4,0.5-0.9,0.8-1.6,0.8C418.9,83.8,418.2,83.2,418.2,82.1z M420.9,82.5c0.2-0.4,0.3-0.9,0.3-1.3c0-0.6-0.3-1-0.9-1
		c-0.5,0-0.8,0.3-1,0.6c-0.2,0.4-0.3,0.9-0.3,1.3c0,0.6,0.3,1,0.9,1C420.5,83.1,420.7,82.8,420.9,82.5z M425.1,79.7h0.9l-6,9h-0.9
		L425.1,79.7z M423.5,85.4c0.4-0.5,0.9-0.8,1.6-0.8c1,0,1.7,0.6,1.7,1.7c0,0.6-0.2,1.2-0.5,1.8c-0.3,0.5-0.9,0.8-1.6,0.8
		c-1,0-1.7-0.6-1.7-1.7C423,86.6,423.2,85.9,423.5,85.4z M424.7,88.1c0.5,0,0.8-0.3,1-0.6c0.2-0.4,0.3-0.9,0.3-1.3
		c0-0.6-0.3-1-0.9-1c-0.5,0-0.8,0.3-1,0.6c-0.2,0.4-0.3,0.9-0.3,1.3C423.8,87.7,424.1,88.1,424.7,88.1z"/>
</g>
<g class="st1">
</g>
<g class="st1">
	<path d="M604.7,324.4c0-2.9,1.1-4.6,4.1-4.6c0.8,0,1.5,0.1,2.2,0.2l-0.2,1.5c-0.5-0.1-1.3-0.2-1.9-0.2c-1.9,0-2.3,1.1-2.3,3.2
		c0,1.7,0.3,3,2.2,3c0.7,0,1.4-0.2,2.1-0.4l0.5,1.4c-0.9,0.4-1.7,0.6-2.7,0.6C605.9,329,604.7,327.4,604.7,324.4z"/>
	<path d="M614.9,322.3c2.2,0,3,1.3,3,3.4c0,2.1-0.8,3.4-3,3.4c-2.2,0-3-1.3-3-3.4C611.9,323.6,612.7,322.3,614.9,322.3z
		 M614.9,327.6c1.1,0,1.3-0.9,1.3-1.9c0-1.1-0.1-1.9-1.3-1.9s-1.3,0.9-1.3,1.9C613.6,326.7,613.7,327.6,614.9,327.6z"/>
	<path d="M621.5,322.3c2.2,0,3,1.3,3,3.4c0,2.1-0.8,3.4-3,3.4c-2.2,0-3-1.3-3-3.4C618.6,323.6,619.4,322.3,621.5,322.3z
		 M621.5,327.6c1.1,0,1.3-0.9,1.3-1.9c0-1.1-0.1-1.9-1.3-1.9s-1.3,0.9-1.3,1.9C620.2,326.7,620.4,327.6,621.5,327.6z"/>
	<path d="M625.7,319.9h1.7v9h-1.7V319.9z"/>
	<path d="M628.9,319.9h1.7v1.6h-1.7V319.9z M628.9,322.4h1.7v6.5h-1.7V322.4z"/>
	<path d="M632.1,322.4h1.2l0.1,0.5c0.6-0.4,1.2-0.6,2-0.6c1.5,0,2.2,1,2.2,2.2v4.4h-1.7v-4.2c0-0.6-0.3-1-0.9-1
		c-0.4,0-0.9,0.2-1.2,0.3v4.8h-1.7V322.4z"/>
	<path d="M641.3,330.1c0.6,0,1.3-0.1,1.3-1v-0.4c-0.4,0.2-0.8,0.3-1.3,0.3c-1.7,0-2.5-1.2-2.5-3.3c0-2.4,1.1-3.4,3-3.4
		c1,0,1.9,0.3,2.5,0.5v6.2c0,2.1-1.2,2.6-3,2.6c-0.7,0-1.3-0.1-1.8-0.2l0.2-1.4C640,330,640.7,330.1,641.3,330.1z M642.6,327.3v-3.5
		c-0.3-0.1-0.6-0.1-0.9-0.1c-1,0-1.3,0.5-1.3,1.9c0,1.3,0.3,1.8,1.2,1.8C641.9,327.5,642.3,327.4,642.6,327.3z"/>
</g>
<g class="st1">
</g>
<g class="st1">
	<path d="M604.4,344.6c0.7,0.2,1.4,0.4,2.2,0.4c0.7,0,1.3-0.1,1.7-0.6c0.4-0.4,0.5-1.1,0.5-1.6c0-0.9-0.6-1.3-1.5-1.3h-1l0.2-0.9h1
		c0.6,0,1.1-0.2,1.4-0.6c0.3-0.3,0.4-0.8,0.4-1.2c0-1-0.6-1.3-1.5-1.3c-0.7,0-1.4,0.2-2,0.4l-0.3-0.8c0.7-0.3,1.5-0.5,2.3-0.5
		c1.4,0,2.5,0.7,2.5,2.1c0,1-0.6,2.1-1.6,2.4v0.1c0.7,0.3,1,0.8,1,1.8c0,0.8-0.3,1.6-0.8,2.2c-0.6,0.6-1.4,0.9-2.5,0.9
		c-0.8,0-1.6-0.2-2.4-0.4L604.4,344.6z"/>
	<path d="M611.1,344.6c0.7,0.2,1.6,0.4,2.3,0.4c0.9,0,1.5-0.3,1.8-0.8c0.3-0.4,0.4-1.1,0.4-1.6c0-1-0.5-1.4-1.8-1.4h-2.1l0.9-4.5
		h4.5l-0.2,0.9h-3.5l-0.6,2.7h1c1.8,0,2.7,0.7,2.7,2.2c0,0.8-0.3,1.7-0.8,2.3c-0.6,0.8-1.6,1-2.6,1c-0.8,0-1.7-0.1-2.5-0.4
		L611.1,344.6z"/>
	<path d="M618.3,339.1c0-0.6,0.2-1.2,0.5-1.8c0.4-0.5,0.9-0.8,1.6-0.8c1,0,1.7,0.6,1.7,1.7c0,0.6-0.2,1.2-0.5,1.8
		c-0.4,0.5-0.9,0.8-1.6,0.8C618.9,340.8,618.3,340.2,618.3,339.1z M620.9,339.5c0.2-0.4,0.3-0.9,0.3-1.3c0-0.6-0.3-1-0.9-1
		c-0.5,0-0.8,0.3-1,0.6c-0.2,0.4-0.3,0.9-0.3,1.3c0,0.6,0.3,1,0.9,1C620.5,340.1,620.8,339.9,620.9,339.5z M625.1,336.7h0.9l-6,9
		h-0.9L625.1,336.7z M623.5,342.4c0.3-0.5,0.9-0.8,1.6-0.8c1,0,1.7,0.6,1.7,1.7c0,0.6-0.2,1.2-0.5,1.8c-0.4,0.5-0.9,0.8-1.6,0.8
		c-1,0-1.7-0.6-1.7-1.7C623,343.6,623.2,342.9,623.5,342.4z M624.7,345.1c0.5,0,0.8-0.3,1-0.6c0.2-0.4,0.3-0.9,0.3-1.3
		c0-0.6-0.3-1-0.9-1c-0.5,0-0.8,0.3-1,0.6c-0.2,0.4-0.3,0.9-0.3,1.3C623.8,344.7,624.1,345.1,624.7,345.1z"/>
</g>
<g>
	<path d="M122,151h5.5v1.5h-3.7v2.1h3.2v1.5h-3.2v2.3h3.7v1.5H122V151z"/>
	<path d="M130.3,156.7c-0.6-0.9-1.4-2-2-3.2h1.8c0.4,0.7,0.8,1.4,1.3,2h0.1c0.4-0.6,0.9-1.3,1.3-2h1.7c-0.7,1.1-1.4,2.3-2,3.2
		c0.6,0.9,1.5,2.2,2.1,3.3h-1.8c-0.4-0.7-0.9-1.5-1.3-2.1h-0.1c-0.4,0.7-0.9,1.5-1.3,2.1h-1.7C128.8,158.9,129.6,157.6,130.3,156.7z
		"/>
	<path d="M135.6,154.9h-1v-1.2l1.1-0.1l0.1-1.9h1.5v1.8h1.6v1.4h-1.6v3.2c0,0.5,0.2,0.6,0.5,0.6c0.3,0,0.7-0.1,0.9-0.2l0.4,1.3
		c-0.4,0.2-1,0.3-1.6,0.3c-1.1,0-1.9-0.6-1.9-1.9V154.9z"/>
	<path d="M140,158.4h1.6v1.6H140V158.4z"/>
	<path d="M146.7,151h5.5v1.5h-3.7v2.1h3.2v1.5h-3.2v2.3h3.7v1.5h-5.5V151z"/>
	<path d="M155.9,153.4c1,0,1.9,0.3,2.5,0.5v8.7h-1.7v-2.7c-0.4,0.2-0.8,0.3-1.3,0.3c-1.8,0-2.5-1.2-2.5-3.3
		C152.8,154.4,153.9,153.4,155.9,153.4z M156.7,158.5v-3.6c-0.3-0.1-0.6-0.1-0.9-0.1c-1,0-1.3,0.5-1.3,2c0,1.3,0.3,1.9,1.2,1.9
		C156.1,158.7,156.4,158.6,156.7,158.5z"/>
	<path d="M159.9,153.6h1.7v4.2c0,0.6,0.3,1,0.9,1c0.4,0,0.9-0.2,1.2-0.3v-4.8h1.7v6.5h-1.2l-0.1-0.5c-0.5,0.4-1.2,0.6-2,0.6
		c-1.5,0-2.2-1-2.2-2.2V153.6z"/>
	<path d="M166.9,151h1.7v1.6h-1.7V151z M166.9,153.6h1.7v6.5h-1.7V153.6z"/>
	<path d="M171.8,162.6h-1.7v-9h1.2l0.2,0.4c0.4-0.3,0.9-0.6,1.8-0.6c1.6,0,2.5,1.1,2.5,3.3c0,2.3-1,3.4-2.8,3.4
		c-0.4,0-0.8-0.1-1.1-0.1V162.6z M172.8,158.8c1,0,1.3-0.5,1.3-1.9c0-1.4-0.3-2-1.1-2c-0.4,0-0.8,0.1-1.1,0.3v3.5
		C172.1,158.7,172.5,158.8,172.8,158.8z"/>
	<path d="M176.9,153.6h1.2l0.1,0.5c0.4-0.3,1-0.6,1.8-0.6c0.7,0,1.3,0.3,1.6,0.7c0.6-0.4,1.2-0.7,2-0.7c1.4,0,2.1,1,2.1,2.3v4.3
		h-1.7v-4.1c0-0.6-0.3-1-0.9-1c-0.4,0-0.7,0.1-1.1,0.3c0,0.2,0,0.3,0,0.5v4.3h-1.7v-4.1c0-0.6-0.3-1-0.9-1c-0.4,0-0.8,0.1-1.1,0.3
		v4.9h-1.7V153.6z"/>
	<path d="M189.7,153.4c1.7,0,2.6,1,2.6,2.9c0,0.3,0,0.8-0.1,1.1h-3.6c0.1,0.9,0.5,1.3,1.4,1.3c0.6,0,1.3-0.2,1.8-0.4l0.5,1.3
		c-0.7,0.3-1.5,0.5-2.3,0.5c-2,0-3-1.1-3-3.3C186.9,154.6,187.9,153.4,189.7,153.4z M190.7,156.1c0-0.8-0.3-1.2-1-1.2
		c-0.7,0-1,0.5-1.1,1.2H190.7z"/>
	<path d="M193.5,153.6h1.2l0.1,0.5c0.6-0.4,1.2-0.6,2-0.6c1.5,0,2.2,1,2.2,2.2v4.4h-1.7v-4.2c0-0.6-0.3-1-0.9-1
		c-0.4,0-0.9,0.2-1.2,0.3v4.8h-1.7V153.6z"/>
	<path d="M200.7,154.9h-1v-1.2l1.1-0.1l0.1-1.9h1.5v1.8h1.6v1.4h-1.6v3.2c0,0.5,0.2,0.6,0.5,0.6c0.3,0,0.7-0.1,0.9-0.2l0.4,1.3
		c-0.4,0.2-1,0.3-1.6,0.3c-1.1,0-1.9-0.6-1.9-1.9V154.9z"/>
</g>
<g class="st1">
	<path d="M187.3,174c1.2-1.8,2.8-4,4.5-6.2h1.1c-1.6,2.1-3.2,4.2-4.4,6h2.9l0.5-2h0.9l-0.4,2h1.6l-0.2,0.9h-1.6l-0.4,2.1h-1l0.4-2.1
		h-4.1L187.3,174z"/>
	<path d="M195.3,170.3c0-0.6,0.2-1.2,0.5-1.8c0.4-0.5,0.9-0.8,1.6-0.8c1,0,1.7,0.6,1.7,1.7c0,0.6-0.2,1.2-0.5,1.8
		c-0.4,0.5-0.9,0.8-1.6,0.8C196,171.9,195.3,171.4,195.3,170.3z M198,170.7c0.2-0.4,0.3-0.9,0.3-1.3c0-0.6-0.3-1-0.9-1
		c-0.5,0-0.8,0.3-1,0.6c-0.2,0.4-0.3,0.9-0.3,1.3c0,0.6,0.3,1,0.9,1C197.6,171.2,197.8,171,198,170.7z M202.2,167.8h0.9l-6,9h-0.9
		L202.2,167.8z M200.6,173.5c0.4-0.5,0.9-0.8,1.6-0.8c1,0,1.7,0.6,1.7,1.7c0,0.6-0.2,1.2-0.5,1.8c-0.4,0.5-0.9,0.8-1.6,0.8
		c-1,0-1.7-0.6-1.7-1.7C200.1,174.7,200.2,174.1,200.6,173.5z M201.8,176.3c0.5,0,0.8-0.3,1-0.6c0.2-0.4,0.3-0.9,0.3-1.3
		c0-0.6-0.3-1-0.9-1c-0.5,0-0.8,0.3-1,0.6c-0.2,0.4-0.3,0.9-0.3,1.3C200.9,175.9,201.1,176.3,201.8,176.3z"/>
</g>
<g>
	<path d="M114.7,415.8h5.5v1.5h-3.7v2.1h3.2v1.5h-3.2v2.3h3.7v1.5h-5.5V415.8z"/>
	<path d="M122.9,421.5c-0.6-0.9-1.4-2-2-3.2h1.8c0.4,0.7,0.8,1.4,1.3,2h0.1c0.4-0.6,0.9-1.3,1.3-2h1.7c-0.7,1.1-1.4,2.3-2,3.2
		c0.6,0.9,1.5,2.2,2.1,3.3h-1.8c-0.4-0.7-0.9-1.5-1.3-2.1h-0.1c-0.4,0.7-0.9,1.5-1.3,2.1h-1.7C121.5,423.7,122.3,422.4,122.9,421.5z
		"/>
	<path d="M128.2,419.7h-1v-1.2l1.1-0.1l0.1-1.9h1.5v1.8h1.6v1.4h-1.6v3.2c0,0.5,0.2,0.6,0.5,0.6c0.3,0,0.7-0.1,0.9-0.2l0.4,1.3
		c-0.4,0.2-1,0.3-1.6,0.3c-1.1,0-1.9-0.6-1.9-1.9V419.7z"/>
	<path d="M132.7,423.2h1.6v1.6h-1.6V423.2z"/>
	<path d="M139.3,415.8h1.8v7.5h3.7v1.5h-5.4V415.8z"/>
	<path d="M145.8,415.8h1.7v1.6h-1.7V415.8z M145.8,418.4h1.7v6.5h-1.7V418.4z"/>
	<path d="M151.2,426.1c0.6,0,1.3-0.1,1.3-1v-0.4c-0.4,0.2-0.8,0.3-1.3,0.3c-1.7,0-2.5-1.2-2.5-3.3c0-2.4,1.1-3.4,3-3.4
		c1,0,1.9,0.3,2.5,0.5v6.2c0,2.1-1.2,2.6-3,2.6c-0.7,0-1.3-0.1-1.8-0.2l0.2-1.4C149.9,426,150.6,426.1,151.2,426.1z M152.5,423.2
		v-3.5c-0.3-0.1-0.6-0.1-0.9-0.1c-1,0-1.3,0.5-1.3,1.9c0,1.3,0.3,1.8,1.2,1.8C151.8,423.4,152.2,423.3,152.5,423.2z"/>
	<path d="M155.7,415.8h1.7v2.8c0.5-0.3,1-0.4,1.6-0.4c1.5,0,2.2,1,2.2,2.2v4.4h-1.7v-4.2c0-0.6-0.3-1-0.9-1c-0.4,0-0.9,0.2-1.2,0.3
		v4.8h-1.7V415.8z"/>
	<path d="M162.9,419.7h-1v-1.2l1.1-0.1l0.1-1.9h1.5v1.8h1.6v1.4h-1.6v3.2c0,0.5,0.2,0.6,0.5,0.6c0.3,0,0.7-0.1,0.9-0.2l0.4,1.3
		c-0.4,0.2-1,0.3-1.6,0.3c-1.1,0-1.9-0.6-1.9-1.9V419.7z"/>
	<path d="M167.4,415.8h1.7v1.6h-1.7V415.8z M167.4,418.4h1.7v6.5h-1.7V418.4z"/>
	<path d="M170.7,418.4h1.2l0.1,0.5c0.6-0.4,1.2-0.6,2-0.6c1.5,0,2.2,1,2.2,2.2v4.4h-1.7v-4.2c0-0.6-0.3-1-0.9-1
		c-0.4,0-0.9,0.2-1.2,0.3v4.8h-1.7V418.4z"/>
	<path d="M179.8,426.1c0.6,0,1.3-0.1,1.3-1v-0.4c-0.4,0.2-0.8,0.3-1.3,0.3c-1.7,0-2.5-1.2-2.5-3.3c0-2.4,1.1-3.4,3-3.4
		c1,0,1.9,0.3,2.5,0.5v6.2c0,2.1-1.2,2.6-3,2.6c-0.7,0-1.3-0.1-1.8-0.2l0.2-1.4C178.5,426,179.3,426.1,179.8,426.1z M181.1,423.2
		v-3.5c-0.3-0.1-0.6-0.1-0.9-0.1c-1,0-1.3,0.5-1.3,1.9c0,1.3,0.3,1.8,1.2,1.8C180.5,423.4,180.8,423.3,181.1,423.2z"/>
</g>
<g class="st1">
	<path d="M163.8,433.7l-1.9,0.7l-0.3-0.7l2.5-1h0.9l-1.6,9h-1L163.8,433.7z"/>
	<path d="M167.3,435.1c0.6-1.7,1.4-2.6,3.2-2.6c1.9,0,2.6,1,2.6,2.7c0,1.1-0.3,2.8-0.7,4c-0.6,1.7-1.4,2.6-3.2,2.6
		c-1.8,0-2.6-1-2.6-2.7C166.6,438,166.9,436.2,167.3,435.1z M169.3,440.9c1.2,0,1.8-0.7,2.2-2.1c0.3-1,0.6-2.5,0.6-3.5
		c0-1.1-0.4-1.8-1.6-1.8c-1.3,0-1.8,0.8-2.2,2.1c-0.3,1-0.6,2.5-0.6,3.6C167.7,440.2,168,440.9,169.3,440.9z"/>
	<path d="M174.5,435.1c0-0.6,0.2-1.2,0.5-1.8c0.4-0.5,0.9-0.8,1.6-0.8c1,0,1.7,0.6,1.7,1.7c0,0.6-0.2,1.2-0.5,1.8
		c-0.4,0.5-0.9,0.8-1.6,0.8C175.1,436.7,174.5,436.2,174.5,435.1z M177.2,435.4c0.2-0.4,0.3-0.9,0.3-1.3c0-0.6-0.3-1-0.9-1
		c-0.5,0-0.8,0.3-1,0.6c-0.2,0.4-0.3,0.9-0.3,1.3c0,0.6,0.3,1,0.9,1C176.7,436,177,435.8,177.2,435.4z M181.3,432.6h0.9l-6,9h-0.9
		L181.3,432.6z M179.7,438.3c0.4-0.5,0.9-0.8,1.6-0.8c1,0,1.7,0.6,1.7,1.7c0,0.6-0.2,1.2-0.5,1.8c-0.4,0.5-0.9,0.8-1.6,0.8
		c-1,0-1.7-0.6-1.7-1.7C179.2,439.5,179.4,438.9,179.7,438.3z M181,441.1c0.5,0,0.8-0.3,1-0.6c0.2-0.4,0.3-0.9,0.3-1.3
		c0-0.6-0.3-1-0.9-1c-0.5,0-0.8,0.3-1,0.6c-0.2,0.4-0.3,0.9-0.3,1.3C180,440.7,180.3,441.1,181,441.1z"/>
</g>
<g class="st1">
	<path d="M456.3,104.2l-1.9,0.7l-0.3-0.7l2.5-1h0.9l-1.6,9h-1L456.3,104.2z"/>
	<path d="M459.1,105.6c0-0.6,0.2-1.2,0.5-1.8c0.4-0.5,0.9-0.8,1.6-0.8c1,0,1.7,0.6,1.7,1.7c0,0.6-0.2,1.2-0.5,1.8
		c-0.3,0.5-0.9,0.8-1.6,0.8C459.8,107.3,459.1,106.7,459.1,105.6z M461.8,106c0.2-0.4,0.3-0.9,0.3-1.3c0-0.6-0.3-1-0.9-1
		c-0.5,0-0.8,0.3-1,0.6c-0.2,0.4-0.3,0.9-0.3,1.3c0,0.6,0.3,1,0.9,1C461.4,106.6,461.6,106.3,461.8,106z M466,103.1h0.9l-6,9H460
		L466,103.1z M464.4,108.9c0.3-0.5,0.9-0.8,1.6-0.8c1,0,1.7,0.6,1.7,1.7c0,0.6-0.2,1.2-0.5,1.8c-0.4,0.5-0.9,0.8-1.6,0.8
		c-1,0-1.7-0.6-1.7-1.7C463.9,110.1,464,109.4,464.4,108.9z M465.6,111.6c0.5,0,0.8-0.3,1-0.6c0.2-0.4,0.3-0.9,0.3-1.3
		c0-0.6-0.3-1-0.9-1c-0.5,0-0.8,0.3-1,0.6c-0.2,0.4-0.3,0.9-0.3,1.3C464.7,111.2,464.9,111.6,465.6,111.6z"/>
</g>
<g>
	<path d="M454,87.8h5.5v1.5h-3.8v2.3h3.2v1.5h-3.2v3.7H454V87.8z"/>
	<path d="M462.6,92.8c0.4,0,0.6,0,1,0.1v-0.2c0-0.7-0.3-1-1.2-1c-0.5,0-1.3,0.1-1.8,0.2l-0.3-1.4c0.6-0.1,1.4-0.3,2.2-0.3
		c1.7,0,2.7,0.7,2.7,2.3v4.3H464l-0.2-0.5c-0.4,0.3-1,0.6-1.8,0.6c-1.2,0-2.2-0.7-2.2-2C459.8,93.6,460.8,92.8,462.6,92.8z
		 M462.4,95.6c0.4,0,0.9-0.2,1.1-0.4v-1.2c-0.3,0-0.7-0.1-0.9-0.1c-0.7,0-1.1,0.3-1.1,0.8C461.5,95.3,461.9,95.6,462.4,95.6z"/>
	<path d="M466.7,90.3h1.2l0.1,0.5c0.6-0.4,1.2-0.6,2-0.6c1.5,0,2.2,1,2.2,2.2v4.4h-1.7v-4.2c0-0.6-0.3-1-0.9-1
		c-0.4,0-0.9,0.2-1.2,0.3v4.8h-1.7V90.3z"/>
	<path d="M473.4,95.3c0.5,0.1,1.3,0.2,1.8,0.2c0.7,0,1.1-0.1,1.1-0.5c0-0.4-0.5-0.5-1.5-0.8c-1.1-0.4-1.8-0.9-1.8-1.9
		c0-1.3,1-2,2.7-2c0.6,0,1.3,0.1,1.8,0.2l-0.2,1.4c-0.5-0.1-1.1-0.2-1.7-0.2c-0.7,0-1,0.2-1,0.5c0,0.4,0.6,0.5,1.5,0.8
		c1.1,0.4,1.8,0.9,1.8,2c0,1.3-0.9,2.1-2.9,2.1c-0.7,0-1.4-0.1-2-0.2L473.4,95.3z"/>
</g>
<g>
	<path d="M95.8,284.2c0-2.8,1.1-4.6,4.3-4.6c0.8,0,1.7,0.1,2.4,0.3l-0.2,1.5c-0.6-0.1-1.5-0.2-2.2-0.2c-2.1,0-2.5,1.2-2.5,3.1
		c0,1.8,0.4,3.2,2.2,3.2c0.4,0,0.9-0.1,1.3-0.2l0-3.1l1.8,0l0,4.2c-0.8,0.4-2,0.7-3,0.7C96.9,288.9,95.8,287,95.8,284.2z"/>
	<path d="M106.8,282.1c1.7,0,2.6,1,2.6,2.9c0,0.3,0,0.8-0.1,1.1l-3.6,0c0.1,0.9,0.6,1.3,1.4,1.3c0.6,0,1.3-0.2,1.8-0.4l0.5,1.3
		c-0.7,0.3-1.5,0.5-2.3,0.5c-2,0-3-1.1-3.1-3.3C103.9,283.3,104.9,282.1,106.8,282.1z M107.7,284.8c0-0.8-0.3-1.2-1-1.2
		c-0.7,0-1,0.5-1.1,1.2L107.7,284.8z"/>
	<path d="M110.5,282.2l1.2,0l0.1,0.5c0.6-0.4,1.2-0.6,2-0.6c1.5,0,2.2,1,2.2,2.2l0,4.4l-1.7,0l0-4.2c0-0.6-0.3-1-0.9-1
		c-0.4,0-0.9,0.2-1.2,0.3l0,4.8l-1.7,0L110.5,282.2z"/>
	<path d="M119.9,282c1.7,0,2.6,1,2.6,2.9c0,0.3,0,0.8-0.1,1.1l-3.6,0c0.1,0.9,0.6,1.3,1.4,1.3c0.6,0,1.3-0.2,1.8-0.4l0.5,1.3
		c-0.7,0.3-1.5,0.5-2.3,0.5c-2,0-3-1.1-3.1-3.3C117.1,283.2,118.1,282,119.9,282z M120.9,284.7c0-0.8-0.3-1.2-1-1.2
		c-0.7,0-1,0.5-1.1,1.2L120.9,284.7z"/>
	<path d="M123.7,282.1l1.2,0l0.2,0.7c0.5-0.6,1.1-0.9,1.8-0.9c0.2,0,0.5,0,0.8,0.1l-0.1,1.5c-0.3,0-0.5-0.1-0.7-0.1
		c-0.7,0-1.1,0.2-1.5,0.5l0,4.6l-1.7,0L123.7,282.1z"/>
	<path d="M130.8,284.6c0.4,0,0.6,0,1,0.1l0-0.2c0-0.7-0.3-1-1.2-1c-0.5,0-1.3,0.1-1.8,0.2l-0.3-1.4c0.6-0.1,1.4-0.3,2.2-0.3
		c1.7,0,2.7,0.7,2.7,2.3l0,4.3l-1.2,0l-0.2-0.5c-0.4,0.3-1,0.6-1.8,0.6c-1.2,0-2.2-0.7-2.2-2C128.1,285.3,129,284.6,130.8,284.6z
		 M130.6,287.3c0.4,0,0.9-0.2,1.1-0.4l0-1.2c-0.3,0-0.7-0.1-0.9-0.1c-0.7,0-1.1,0.3-1.1,0.8C129.7,287.1,130.1,287.4,130.6,287.3z"
		/>
	<path d="M135.2,283.4l-1,0l0-1.2l1-0.1l0.1-1.9l1.5,0l0,1.8l1.6,0l0,1.4l-1.6,0l0,3.2c0,0.5,0.2,0.6,0.5,0.6c0.3,0,0.7-0.1,0.9-0.2
		l0.4,1.3c-0.4,0.2-1,0.3-1.6,0.3c-1.1,0-1.9-0.6-1.9-1.9L135.2,283.4z"/>
	<path d="M142.2,281.9c2.2,0,3,1.3,3,3.4c0,2.1-0.8,3.4-2.9,3.4c-2.2,0-3-1.3-3-3.4C139.3,283.2,140,281.9,142.2,281.9z
		 M142.2,287.2c1.1,0,1.3-0.9,1.3-1.9c0-1.1-0.2-1.9-1.3-1.9s-1.3,0.9-1.3,1.9C141,286.3,141.1,287.2,142.2,287.2z"/>
	<path d="M146.3,282l1.2,0l0.2,0.7c0.5-0.6,1.1-0.9,1.8-0.9c0.2,0,0.5,0,0.8,0.1l-0.1,1.5c-0.3,0-0.5-0.1-0.7-0.1
		c-0.7,0-1.1,0.2-1.5,0.5l0,4.6l-1.7,0L146.3,282z"/>
</g>
<g class="st1">
	<path d="M138.5,297.5l-1.9,0.7l-0.3-0.7l2.5-1l0.9,0l-1.5,9l-1,0L138.5,297.5z"/>
	<path d="M141.3,298.8c0-0.6,0.1-1.2,0.5-1.8c0.3-0.5,0.9-0.8,1.6-0.9c1,0,1.7,0.6,1.7,1.7c0,0.6-0.1,1.2-0.5,1.8
		c-0.3,0.5-0.9,0.8-1.6,0.9C141.9,300.5,141.3,299.9,141.3,298.8z M144,299.2c0.2-0.4,0.3-0.9,0.3-1.3c0-0.6-0.3-1-0.9-1
		c-0.5,0-0.8,0.3-1,0.6c-0.2,0.4-0.3,0.9-0.3,1.3c0,0.6,0.3,1,0.9,1C143.5,299.7,143.8,299.5,144,299.2z M148.1,296.3l0.9,0
		l-5.9,9.1l-0.9,0L148.1,296.3z M146.5,302c0.3-0.5,0.9-0.8,1.6-0.8c1,0,1.7,0.5,1.7,1.7c0,0.6-0.1,1.2-0.5,1.8
		c-0.3,0.5-0.9,0.8-1.6,0.8c-1,0-1.7-0.5-1.7-1.7C146.1,303.2,146.2,302.5,146.5,302z M147.8,304.8c0.5,0,0.8-0.3,1-0.6
		c0.2-0.4,0.3-0.9,0.3-1.3c0-0.6-0.3-1-0.9-1c-0.5,0-0.8,0.3-1,0.6c-0.2,0.4-0.3,0.9-0.3,1.3C146.9,304.4,147.1,304.8,147.8,304.8z"
		/>
</g>
<g class="st1">
	<path d="M84.4,235.2h1.8v3.6h3.5v-3.6h1.8v9h-1.8v-3.9h-3.5v3.9h-1.8V235.2z"/>
	<path d="M95.4,237.6c1.7,0,2.6,1,2.6,2.9c0,0.3,0,0.8-0.1,1.1h-3.6c0.1,0.9,0.5,1.3,1.4,1.3c0.6,0,1.3-0.2,1.8-0.4l0.5,1.3
		c-0.7,0.3-1.5,0.5-2.3,0.5c-2,0-3-1.1-3-3.3C92.6,238.8,93.6,237.6,95.4,237.6z M96.4,240.3c0-0.8-0.3-1.2-1-1.2
		c-0.7,0-1,0.5-1.1,1.2H96.4z"/>
	<path d="M101.5,240.2c0.4,0,0.6,0,1,0.1v-0.2c0-0.7-0.3-1-1.2-1c-0.5,0-1.3,0.1-1.8,0.2l-0.3-1.4c0.6-0.1,1.4-0.3,2.2-0.3
		c1.7,0,2.7,0.7,2.7,2.3v4.3H103l-0.2-0.5c-0.4,0.3-1,0.6-1.8,0.6c-1.2,0-2.2-0.7-2.2-2C98.8,241,99.7,240.2,101.5,240.2z
		 M101.3,243c0.4,0,0.9-0.2,1.1-0.4v-1.2c-0.3,0-0.7-0.1-0.9-0.1c-0.7,0-1.1,0.3-1.1,0.8C100.5,242.7,100.8,243,101.3,243z"/>
	<path d="M105.9,239.1h-1v-1.2l1.1-0.1l0.1-1.9h1.5v1.8h1.6v1.4h-1.6v3.2c0,0.5,0.2,0.6,0.5,0.6c0.3,0,0.7-0.1,0.9-0.2l0.4,1.3
		c-0.4,0.2-1,0.3-1.6,0.3c-1.1,0-1.9-0.6-1.9-1.9V239.1z"/>
	<path d="M114,235.3c0.7-0.1,1.9-0.3,2.9-0.3c2,0,3.5,0.7,3.5,2.8c0,1.5-0.7,2.2-1.7,2.6c0.5,1.1,1.3,2.5,2,3.7l0,0h-2.1
		c-0.6-1.1-1.3-2.4-1.8-3.5c-0.4,0-0.8,0-1.1-0.1v3.5H114V235.3z M116.8,239.4c1.1,0,1.8-0.3,1.8-1.4c0-1.1-0.6-1.4-1.7-1.4
		c-0.3,0-0.8,0-1.1,0.1v2.7C116.1,239.3,116.5,239.4,116.8,239.4z"/>
	<path d="M124.1,237.6c1.7,0,2.6,1,2.6,2.9c0,0.3,0,0.8-0.1,1.1H123c0.1,0.9,0.5,1.3,1.4,1.3c0.6,0,1.3-0.2,1.8-0.4l0.5,1.3
		c-0.7,0.3-1.5,0.5-2.3,0.5c-2,0-3-1.1-3-3.3C121.3,238.8,122.3,237.6,124.1,237.6z M125.1,240.3c0-0.8-0.3-1.2-1-1.2
		c-0.7,0-1,0.5-1.1,1.2H125.1z"/>
	<path d="M130.7,237.6c0.5,0,1.1,0.1,1.6,0.2l-0.2,1.4c-0.4-0.1-1-0.1-1.4-0.1c-1.2,0-1.5,0.5-1.5,1.9c0,1.3,0.3,1.9,1.3,1.9
		c0.6,0,1.3-0.2,1.7-0.3l0.4,1.4c-0.6,0.3-1.4,0.4-2.2,0.4c-2,0-2.9-1.1-2.9-3.4C127.5,238.8,128.4,237.6,130.7,237.6z"/>
	<path d="M136.1,237.6c2.2,0,3,1.3,3,3.4c0,2.1-0.8,3.4-3,3.4c-2.2,0-3-1.3-3-3.4C133.1,238.9,133.9,237.6,136.1,237.6z
		 M136.1,242.9c1.1,0,1.3-0.9,1.3-1.9c0-1.1-0.1-1.9-1.3-1.9s-1.3,0.9-1.3,1.9C134.8,242,135,242.9,136.1,242.9z"/>
	<path d="M139.5,237.7h1.7c0.4,1.6,0.9,3.5,1.4,5h0.1c0.5-1.5,1-3.3,1.4-5h1.6c-0.5,2.1-1.4,5.1-2,6.5h-2.2
		C140.9,242.8,140,239.8,139.5,237.7z"/>
	<path d="M148.9,237.6c1.7,0,2.6,1,2.6,2.9c0,0.3,0,0.8-0.1,1.1h-3.6c0.1,0.9,0.5,1.3,1.4,1.3c0.6,0,1.3-0.2,1.8-0.4l0.5,1.3
		c-0.7,0.3-1.5,0.5-2.3,0.5c-2,0-3-1.1-3-3.3C146,238.8,147,237.6,148.9,237.6z M149.8,240.3c0-0.8-0.3-1.2-1-1.2
		c-0.7,0-1,0.5-1.1,1.2H149.8z"/>
	<path d="M152.7,237.7h1.2l0.2,0.7c0.5-0.6,1.1-0.9,1.8-0.9c0.2,0,0.5,0,0.8,0.1l-0.1,1.5c-0.3,0-0.5-0.1-0.7-0.1
		c-0.7,0-1.1,0.2-1.5,0.5v4.6h-1.7V237.7z"/>
	<path d="M156.9,237.7h1.7c0.4,1.6,0.8,3.5,1.3,5h0.1c0.5-1.6,1-3.3,1.5-5h1.6c-0.8,3.1-1.9,6.5-2.9,9h-1.6c0.3-0.8,0.6-1.6,0.9-2.5
		h-0.7C158.1,242.8,157.3,239.8,156.9,237.7z"/>
</g>
<g class="st1">
	<path d="M146.1,258.2c1.2-1.8,2.8-4,4.5-6.2h1.1c-1.6,2.1-3.2,4.2-4.4,6h2.9l0.5-2h0.9l-0.4,2h1.6l-0.2,0.9h-1.6l-0.4,2.1h-1
		l0.4-2.1H146L146.1,258.2z"/>
	<path d="M154.1,254.4c0-0.6,0.2-1.2,0.5-1.8c0.4-0.5,0.9-0.8,1.6-0.8c1,0,1.7,0.6,1.7,1.7c0,0.6-0.2,1.2-0.5,1.8
		c-0.4,0.5-0.9,0.8-1.6,0.8C154.8,256.1,154.1,255.5,154.1,254.4z M156.8,254.8c0.2-0.4,0.3-0.9,0.3-1.3c0-0.6-0.3-1-0.9-1
		c-0.5,0-0.8,0.3-1,0.6c-0.2,0.4-0.3,0.9-0.3,1.3c0,0.6,0.3,1,0.9,1C156.4,255.4,156.6,255.2,156.8,254.8z M161,252h0.9l-6,9H155
		L161,252z M159.4,257.7c0.4-0.5,0.9-0.8,1.6-0.8c1,0,1.7,0.6,1.7,1.7c0,0.6-0.2,1.2-0.5,1.8c-0.4,0.5-0.9,0.8-1.6,0.8
		c-1,0-1.7-0.6-1.7-1.7C158.9,258.9,159.1,258.2,159.4,257.7z M160.6,260.4c0.5,0,0.8-0.3,1-0.6c0.2-0.4,0.3-0.9,0.3-1.3
		c0-0.6-0.3-1-0.9-1c-0.5,0-0.8,0.3-1,0.6c-0.2,0.4-0.3,0.9-0.3,1.3C159.7,260,160,260.4,160.6,260.4z"/>
</g>
<g>
	<path d="M101.6,192.6h1.8v3.6h3.5v-3.6h1.8v9h-1.8v-3.9h-3.5v3.9h-1.8V192.6z"/>
	<path d="M112.6,195c1.7,0,2.6,1,2.6,2.9c0,0.3,0,0.8-0.1,1.1h-3.6c0.1,0.9,0.5,1.3,1.4,1.3c0.6,0,1.3-0.2,1.8-0.4l0.5,1.3
		c-0.7,0.3-1.5,0.5-2.3,0.5c-2,0-3-1.1-3-3.3C109.8,196.2,110.8,195,112.6,195z M113.6,197.7c0-0.8-0.3-1.2-1-1.2
		c-0.7,0-1,0.5-1.1,1.2H113.6z"/>
	<path d="M118.7,197.7c0.4,0,0.6,0,1,0.1v-0.2c0-0.7-0.3-1-1.2-1c-0.5,0-1.3,0.1-1.8,0.2l-0.3-1.4c0.6-0.1,1.4-0.3,2.2-0.3
		c1.7,0,2.7,0.7,2.7,2.3v4.3h-1.2l-0.2-0.5c-0.4,0.3-1,0.6-1.8,0.6c-1.2,0-2.2-0.7-2.2-2C116,198.4,116.9,197.7,118.7,197.7z
		 M118.5,200.4c0.4,0,0.9-0.2,1.1-0.4v-1.2c-0.3,0-0.7-0.1-0.9-0.1c-0.7,0-1.1,0.3-1.1,0.8C117.7,200.2,118,200.4,118.5,200.4z"/>
	<path d="M123.1,196.5h-1v-1.2l1.1-0.1l0.1-1.9h1.5v1.8h1.6v1.4h-1.6v3.2c0,0.5,0.2,0.6,0.5,0.6c0.3,0,0.7-0.1,0.9-0.2l0.4,1.3
		c-0.4,0.2-1,0.3-1.6,0.3c-1.1,0-1.9-0.6-1.9-1.9V196.5z"/>
	<path d="M131.2,192.7c0.7-0.1,1.9-0.3,2.9-0.3c2,0,3.5,0.7,3.5,2.8c0,1.5-0.7,2.2-1.7,2.6c0.5,1.1,1.3,2.5,2,3.7l0,0h-2.1
		c-0.6-1.1-1.3-2.4-1.8-3.5c-0.4,0-0.8,0-1.1-0.1v3.5h-1.8V192.7z M134,196.8c1.1,0,1.8-0.3,1.8-1.4c0-1.1-0.6-1.4-1.7-1.4
		c-0.3,0-0.8,0-1.1,0.1v2.7C133.3,196.8,133.7,196.8,134,196.8z"/>
	<path d="M141.3,195c1.7,0,2.6,1,2.6,2.9c0,0.3,0,0.8-0.1,1.1h-3.6c0.1,0.9,0.5,1.3,1.4,1.3c0.6,0,1.3-0.2,1.8-0.4l0.5,1.3
		c-0.7,0.3-1.5,0.5-2.3,0.5c-2,0-3-1.1-3-3.3C138.5,196.2,139.5,195,141.3,195z M142.3,197.7c0-0.8-0.3-1.2-1-1.2
		c-0.7,0-1,0.5-1.1,1.2H142.3z"/>
	<path d="M145.1,195.2h1.7v5c0,1.8-0.2,3-0.8,4h-1.6c0.6-1.3,0.7-2.2,0.7-4V195.2z M145.1,192.6h1.7v1.6h-1.7V192.6z"/>
	<path d="M150.8,195c1.7,0,2.6,1,2.6,2.9c0,0.3,0,0.8-0.1,1.1h-3.6c0.1,0.9,0.5,1.3,1.4,1.3c0.6,0,1.3-0.2,1.8-0.4l0.5,1.3
		c-0.7,0.3-1.5,0.5-2.3,0.5c-2,0-3-1.1-3-3.3C148,196.2,149,195,150.8,195z M151.7,197.7c0-0.8-0.3-1.2-1-1.2c-0.7,0-1,0.5-1.1,1.2
		H151.7z"/>
	<path d="M157.3,195c0.5,0,1.1,0.1,1.6,0.2l-0.2,1.4c-0.4-0.1-1-0.1-1.4-0.1c-1.2,0-1.5,0.5-1.5,1.9c0,1.3,0.3,1.9,1.3,1.9
		c0.6,0,1.3-0.2,1.7-0.3l0.4,1.4c-0.6,0.3-1.4,0.4-2.2,0.4c-2,0-2.9-1.1-2.9-3.4C154.1,196.2,155,195,157.3,195z"/>
	<path d="M160.4,196.5h-1v-1.2l1.1-0.1l0.1-1.9h1.5v1.8h1.6v1.4h-1.6v3.2c0,0.5,0.2,0.6,0.5,0.6c0.3,0,0.7-0.1,0.9-0.2l0.4,1.3
		c-0.4,0.2-1,0.3-1.6,0.3c-1.1,0-1.9-0.6-1.9-1.9V196.5z"/>
	<path d="M164.9,192.6h1.7v1.6h-1.7V192.6z M164.9,195.2h1.7v6.5h-1.7V195.2z"/>
	<path d="M170.7,195c2.2,0,3,1.3,3,3.4c0,2.1-0.8,3.4-3,3.4c-2.2,0-3-1.3-3-3.4C167.8,196.3,168.6,195,170.7,195z M170.7,200.3
		c1.1,0,1.3-0.9,1.3-1.9c0-1.1-0.1-1.9-1.3-1.9s-1.3,0.9-1.3,1.9C169.5,199.5,169.6,200.3,170.7,200.3z"/>
	<path d="M174.9,195.2h1.2l0.1,0.5c0.6-0.4,1.2-0.6,2-0.6c1.5,0,2.2,1,2.2,2.2v4.4h-1.7v-4.2c0-0.6-0.3-1-0.9-1
		c-0.4,0-0.9,0.2-1.2,0.3v4.8h-1.7V195.2z"/>
</g>
<g class="st1">
	<path d="M164.5,218.6c1.5-1.2,2.8-2.3,3.6-3.1c0.9-1,1.6-2,1.6-3c0-1-0.7-1.4-1.6-1.4c-0.7,0-1.4,0.2-2,0.4l-0.3-0.8
		c0.7-0.3,1.5-0.5,2.4-0.5c1.5,0,2.5,0.8,2.5,2.2c0,1.2-0.7,2.4-1.9,3.6c-0.8,0.9-1.8,1.6-2.7,2.4l0,0.1h3.8l-0.2,0.9h-5.4
		L164.5,218.6z"/>
	<path d="M171.9,212.8c0-0.6,0.2-1.2,0.5-1.8c0.4-0.5,0.9-0.8,1.6-0.8c1,0,1.7,0.6,1.7,1.7c0,0.6-0.2,1.2-0.5,1.8
		c-0.4,0.5-0.9,0.8-1.6,0.8C172.6,214.4,171.9,213.9,171.9,212.8z M174.6,213.2c0.2-0.4,0.3-0.9,0.3-1.3c0-0.6-0.3-1-0.9-1
		c-0.5,0-0.8,0.3-1,0.6c-0.2,0.4-0.3,0.9-0.3,1.3c0,0.6,0.3,1,0.9,1C174.2,213.7,174.4,213.5,174.6,213.2z M178.8,210.3h0.9l-6,9
		h-0.9L178.8,210.3z M177.2,216c0.4-0.5,0.9-0.8,1.6-0.8c1,0,1.7,0.6,1.7,1.7c0,0.6-0.2,1.2-0.5,1.8c-0.4,0.5-0.9,0.8-1.6,0.8
		c-1,0-1.7-0.6-1.7-1.7C176.7,217.2,176.8,216.6,177.2,216z M178.4,218.8c0.5,0,0.8-0.3,1-0.6c0.2-0.4,0.3-0.9,0.3-1.3
		c0-0.6-0.3-1-0.9-1c-0.5,0-0.8,0.3-1,0.6c-0.2,0.4-0.3,0.9-0.3,1.3C177.5,218.4,177.8,218.8,178.4,218.8z"/>
</g>
<g>
	<path d="M431,519.7h1.8v3.6h3.5v-3.6h1.8v9h-1.8v-3.9h-3.5v3.9H431V519.7z"/>
	<path d="M442,522.1c1.7,0,2.6,1,2.6,2.9c0,0.3,0,0.8-0.1,1.1h-3.6c0.1,0.9,0.5,1.3,1.4,1.3c0.6,0,1.3-0.2,1.8-0.4l0.5,1.3
		c-0.7,0.3-1.5,0.5-2.3,0.5c-2,0-3-1.1-3-3.3C439.2,523.3,440.2,522.1,442,522.1z M443,524.8c0-0.8-0.3-1.2-1-1.2
		c-0.7,0-1,0.5-1.1,1.2H443z"/>
	<path d="M448.1,524.7c0.4,0,0.6,0,1,0.1v-0.2c0-0.7-0.3-1-1.2-1c-0.5,0-1.3,0.1-1.8,0.2l-0.3-1.4c0.6-0.1,1.4-0.3,2.2-0.3
		c1.7,0,2.7,0.7,2.7,2.3v4.3h-1.2l-0.2-0.5c-0.4,0.3-1,0.6-1.8,0.6c-1.2,0-2.2-0.7-2.2-2C445.4,525.5,446.3,524.7,448.1,524.7z
		 M447.9,527.5c0.4,0,0.9-0.2,1.1-0.4v-1.2c-0.3,0-0.7-0.1-0.9-0.1c-0.7,0-1.1,0.3-1.1,0.8C447.1,527.2,447.4,527.5,447.9,527.5z"/>
	<path d="M452.5,523.6h-1v-1.2l1-0.1l0.1-1.9h1.5v1.8h1.6v1.4h-1.6v3.2c0,0.5,0.2,0.6,0.5,0.6c0.3,0,0.7-0.1,0.9-0.2l0.4,1.3
		c-0.4,0.2-1,0.3-1.6,0.3c-1.1,0-1.9-0.6-1.9-1.9V523.6z"/>
	<path d="M457,519.7h1.7v1.6H457V519.7z M457,522.2h1.7v6.5H457V522.2z"/>
	<path d="M460.3,522.2h1.2l0.1,0.5c0.6-0.4,1.2-0.6,2-0.6c1.5,0,2.2,1,2.2,2.2v4.4H464v-4.2c0-0.6-0.3-1-0.9-1
		c-0.4,0-0.9,0.2-1.2,0.3v4.8h-1.7V522.2z"/>
	<path d="M469.4,529.9c0.6,0,1.3-0.1,1.3-1v-0.4c-0.4,0.2-0.8,0.3-1.3,0.3c-1.7,0-2.5-1.2-2.5-3.3c0-2.4,1.1-3.4,3-3.4
		c1,0,1.9,0.3,2.5,0.5v6.2c0,2.1-1.2,2.6-3,2.6c-0.7,0-1.3-0.1-1.8-0.2l0.2-1.4C468.1,529.8,468.8,529.9,469.4,529.9z M470.7,527
		v-3.5c-0.3-0.1-0.6-0.1-0.9-0.1c-1,0-1.3,0.5-1.3,1.9c0,1.3,0.3,1.8,1.2,1.8C470,527.2,470.4,527.2,470.7,527z"/>
</g>
<g class="st1">
	<path d="M430.2,544.7c1.5-1.2,2.8-2.3,3.6-3.1c0.9-1,1.6-2,1.6-3c0-1-0.7-1.4-1.6-1.4c-0.7,0-1.4,0.2-2,0.4l-0.3-0.8
		c0.7-0.3,1.5-0.5,2.4-0.5c1.5,0,2.5,0.8,2.5,2.2c0,1.2-0.7,2.4-1.9,3.6c-0.8,0.9-1.8,1.6-2.7,2.4l0,0.1h3.8l-0.2,0.9h-5.4
		L430.2,544.7z"/>
	<path d="M437.1,544.7c1.5-1.2,2.8-2.3,3.6-3.1c0.9-1,1.6-2,1.6-3c0-1-0.7-1.4-1.6-1.4c-0.7,0-1.4,0.2-2,0.4l-0.3-0.8
		c0.7-0.3,1.5-0.5,2.4-0.5c1.5,0,2.5,0.8,2.5,2.2c0,1.2-0.7,2.4-1.9,3.6c-0.8,0.9-1.8,1.6-2.7,2.4l0,0.1h3.8l-0.2,0.9H437
		L437.1,544.7z"/>
	<path d="M444.6,538.9c0-0.6,0.2-1.2,0.5-1.8c0.4-0.5,0.9-0.8,1.6-0.8c1,0,1.7,0.6,1.7,1.7c0,0.6-0.2,1.2-0.5,1.8
		c-0.4,0.5-0.9,0.8-1.6,0.8C445.2,540.6,444.6,540,444.6,538.9z M447.3,539.3c0.2-0.4,0.3-0.9,0.3-1.3c0-0.6-0.3-1-0.9-1
		c-0.5,0-0.8,0.3-1,0.6c-0.2,0.4-0.3,0.9-0.3,1.3c0,0.6,0.3,1,0.9,1C446.8,539.9,447.1,539.6,447.3,539.3z M451.4,536.5h0.9l-6,9
		h-0.9L451.4,536.5z M449.8,542.2c0.4-0.5,0.9-0.8,1.6-0.8c1,0,1.7,0.6,1.7,1.7c0,0.6-0.2,1.2-0.5,1.8c-0.3,0.5-0.9,0.8-1.6,0.8
		c-1,0-1.7-0.6-1.7-1.7C449.3,543.4,449.5,542.7,449.8,542.2z M451.1,544.9c0.5,0,0.8-0.3,1-0.6c0.2-0.4,0.3-0.9,0.3-1.3
		c0-0.6-0.3-1-0.9-1c-0.5,0-0.8,0.3-1,0.6c-0.2,0.4-0.3,0.9-0.3,1.3C450.1,544.5,450.4,544.9,451.1,544.9z"/>
</g>
<g>
	<path d="M160.3,113.8h1.8v9h-1.8V113.8z"/>
	<path d="M163.6,116.4h1.2l0.1,0.5c0.6-0.4,1.2-0.6,2-0.6c1.5,0,2.2,1,2.2,2.2v4.4h-1.7v-4.2c0-0.6-0.3-1-0.9-1
		c-0.4,0-0.9,0.2-1.2,0.3v4.8h-1.7V116.4z"/>
	<path d="M170.8,117.8h-1v-1.2l1.1-0.1l0.1-1.9h1.5v1.8h1.6v1.4h-1.6v3.2c0,0.5,0.2,0.6,0.5,0.6c0.3,0,0.7-0.1,0.9-0.2l0.4,1.3
		c-0.4,0.2-1,0.3-1.6,0.3c-1.1,0-1.9-0.6-1.9-1.9V117.8z"/>
	<path d="M175.3,121.2h1.6v1.6h-1.6V121.2z"/>
	<path d="M182,113.8h5.5v1.5h-3.7v2.1h3.2v1.5h-3.2v2.3h3.7v1.5H182V113.8z"/>
	<path d="M191.1,116.2c1,0,1.9,0.3,2.5,0.5v8.7H192v-2.7c-0.4,0.2-0.8,0.3-1.3,0.3c-1.8,0-2.5-1.2-2.5-3.3
		C188.1,117.2,189.2,116.2,191.1,116.2z M192,121.3v-3.6c-0.3-0.1-0.6-0.1-0.9-0.1c-1,0-1.3,0.5-1.3,2c0,1.3,0.3,1.9,1.2,1.9
		C191.4,121.5,191.7,121.5,192,121.3z"/>
	<path d="M195.2,116.4h1.7v4.2c0,0.6,0.3,1,0.9,1c0.4,0,0.9-0.2,1.2-0.3v-4.8h1.7v6.5h-1.2l-0.1-0.5c-0.5,0.4-1.2,0.6-2,0.6
		c-1.5,0-2.2-1-2.2-2.2V116.4z"/>
	<path d="M202.2,113.8h1.7v1.6h-1.7V113.8z M202.2,116.4h1.7v6.5h-1.7V116.4z"/>
	<path d="M207.1,125.4h-1.7v-9h1.2l0.2,0.4c0.4-0.3,0.9-0.6,1.8-0.6c1.6,0,2.5,1.1,2.5,3.3c0,2.3-1,3.4-2.8,3.4
		c-0.4,0-0.8-0.1-1.1-0.1V125.4z M208,121.6c1,0,1.3-0.5,1.3-1.9c0-1.4-0.3-2-1.1-2c-0.4,0-0.8,0.1-1.1,0.3v3.5
		C207.4,121.6,207.7,121.6,208,121.6z"/>
	<path d="M212.2,116.4h1.2l0.1,0.5c0.4-0.3,1-0.6,1.8-0.6c0.7,0,1.3,0.3,1.6,0.7c0.6-0.4,1.2-0.7,2-0.7c1.4,0,2.1,1,2.1,2.3v4.3
		h-1.7v-4.1c0-0.6-0.3-1-0.9-1c-0.4,0-0.7,0.1-1.1,0.3c0,0.2,0,0.3,0,0.5v4.3h-1.7v-4.1c0-0.6-0.3-1-0.9-1c-0.4,0-0.8,0.1-1.1,0.3
		v4.9h-1.7V116.4z"/>
	<path d="M225,116.2c1.7,0,2.6,1,2.6,2.9c0,0.3,0,0.8-0.1,1.1h-3.6c0.1,0.9,0.5,1.3,1.4,1.3c0.6,0,1.3-0.2,1.8-0.4l0.5,1.3
		c-0.7,0.3-1.5,0.5-2.3,0.5c-2,0-3-1.1-3-3.3C222.2,117.5,223.2,116.2,225,116.2z M225.9,118.9c0-0.8-0.3-1.2-1-1.2
		c-0.7,0-1,0.5-1.1,1.2H225.9z"/>
	<path d="M228.8,116.4h1.2l0.1,0.5c0.6-0.4,1.2-0.6,2-0.6c1.5,0,2.2,1,2.2,2.2v4.4h-1.7v-4.2c0-0.6-0.3-1-0.9-1
		c-0.4,0-0.9,0.2-1.2,0.3v4.8h-1.7V116.4z"/>
	<path d="M236,117.8h-1v-1.2l1.1-0.1l0.1-1.9h1.5v1.8h1.6v1.4h-1.6v3.2c0,0.5,0.2,0.6,0.5,0.6c0.3,0,0.7-0.1,0.9-0.2l0.4,1.3
		c-0.4,0.2-1,0.3-1.6,0.3c-1.1,0-1.9-0.6-1.9-1.9V117.8z"/>
</g>
<g class="st1">
	<path d="M224.6,131.5c0.6-1.1,1.5-1.7,3-1.7c0.6,0,1.4,0.1,2,0.3l-0.2,0.8c-0.6-0.1-1.3-0.3-1.8-0.3c-1.4,0-2.2,0.8-2.6,2.8
		c0.5-0.1,1.2-0.3,1.9-0.3c1.3,0,2.4,0.5,2.4,2c0,0.7-0.3,1.6-0.8,2.2c-0.5,0.6-1.3,0.9-2.3,0.9c-1.7,0-2.5-0.8-2.5-2.4
		C223.6,134.6,224,132.7,224.6,131.5z M226.2,137.3c0.7,0,1.2-0.2,1.5-0.6c0.4-0.5,0.5-1.2,0.5-1.6c0-0.9-0.6-1.2-1.6-1.2
		c-0.6,0-1.3,0.1-1.8,0.3c-0.1,0.5-0.2,1.1-0.2,1.5C224.6,136.8,225,137.3,226.2,137.3z"/>
	<path d="M230.8,132.1c0-0.5,0.2-1.1,0.5-1.6c0.3-0.5,0.8-0.8,1.6-0.8c1,0,1.6,0.5,1.6,1.5c0,0.5-0.1,1.1-0.5,1.6
		c-0.3,0.5-0.8,0.8-1.6,0.8C231.4,133.6,230.8,133.1,230.8,132.1z M233.4,132.4c0.2-0.3,0.3-0.8,0.3-1.1c0-0.6-0.2-0.9-0.9-0.9
		c-0.5,0-0.8,0.2-0.9,0.5c-0.2,0.3-0.3,0.8-0.3,1.1c0,0.6,0.2,0.9,0.9,0.9C233,133,233.3,132.7,233.4,132.4z M237.5,129.9h0.8
		l-5.8,8.1h-0.8L237.5,129.9z M235.9,135c0.3-0.5,0.8-0.8,1.6-0.8c1,0,1.6,0.5,1.6,1.5c0,0.5-0.2,1.1-0.5,1.6
		c-0.3,0.5-0.8,0.8-1.6,0.8c-1,0-1.6-0.5-1.6-1.5C235.5,136.1,235.6,135.5,235.9,135z M237.1,137.5c0.5,0,0.8-0.2,0.9-0.5
		c0.2-0.3,0.3-0.8,0.3-1.1c0-0.6-0.2-0.9-0.9-0.9c-0.5,0-0.8,0.2-0.9,0.5c-0.2,0.3-0.3,0.8-0.3,1.1
		C236.2,137.1,236.5,137.5,237.1,137.5z"/>
</g>
<g>
	<path d="M237.9,75.8h1.8v9h-1.8V75.8z"/>
	<path d="M241.2,78.3h1.2l0.1,0.5c0.6-0.4,1.2-0.6,2-0.6c1.5,0,2.2,1,2.2,2.2v4.4H245v-4.2c0-0.6-0.3-1-0.9-1
		c-0.4,0-0.9,0.2-1.2,0.3v4.8h-1.7V78.3z"/>
	<path d="M248.4,79.7h-1v-1.2l1.1-0.1l0.1-1.9h1.5v1.8h1.6v1.4h-1.6v3.2c0,0.5,0.2,0.6,0.5,0.6c0.3,0,0.7-0.1,0.9-0.2l0.4,1.3
		c-0.4,0.2-1,0.3-1.6,0.3c-1.1,0-1.9-0.6-1.9-1.9V79.7z"/>
	<path d="M252.9,83.2h1.6v1.6h-1.6V83.2z"/>
	<path d="M259.6,75.8h1.8v7.5h3.7v1.5h-5.4V75.8z"/>
	<path d="M266,75.8h1.7v1.6H266V75.8z M266,78.3h1.7v6.5H266V78.3z"/>
	<path d="M271.4,86c0.6,0,1.3-0.1,1.3-1v-0.4c-0.4,0.2-0.8,0.3-1.3,0.3c-1.7,0-2.5-1.2-2.5-3.3c0-2.4,1.1-3.4,3-3.4
		c1,0,1.9,0.3,2.5,0.5v6.2c0,2.1-1.2,2.6-3,2.6c-0.7,0-1.3-0.1-1.8-0.2l0.2-1.4C270.1,85.9,270.9,86,271.4,86z M272.7,83.2v-3.5
		c-0.3-0.1-0.6-0.1-0.9-0.1c-1,0-1.3,0.5-1.3,1.9c0,1.3,0.3,1.8,1.2,1.8C272.1,83.4,272.4,83.3,272.7,83.2z"/>
	<path d="M276,75.8h1.7v2.8c0.5-0.3,1-0.4,1.6-0.4c1.5,0,2.2,1,2.2,2.2v4.4h-1.7v-4.2c0-0.6-0.3-1-0.9-1c-0.4,0-0.9,0.2-1.2,0.3v4.8
		H276V75.8z"/>
	<path d="M283.2,79.7h-1v-1.2l1.1-0.1l0.1-1.9h1.5v1.8h1.6v1.4h-1.6v3.2c0,0.5,0.2,0.6,0.5,0.6c0.3,0,0.7-0.1,0.9-0.2l0.4,1.3
		c-0.4,0.2-1,0.3-1.6,0.3c-1.1,0-1.9-0.6-1.9-1.9V79.7z"/>
	<path d="M287.7,75.8h1.7v1.6h-1.7V75.8z M287.7,78.3h1.7v6.5h-1.7V78.3z"/>
	<path d="M290.9,78.3h1.2l0.1,0.5c0.6-0.4,1.2-0.6,2-0.6c1.5,0,2.2,1,2.2,2.2v4.4h-1.7v-4.2c0-0.6-0.3-1-0.9-1
		c-0.4,0-0.9,0.2-1.2,0.3v4.8h-1.7V78.3z"/>
	<path d="M300.1,86c0.6,0,1.3-0.1,1.3-1v-0.4c-0.4,0.2-0.8,0.3-1.3,0.3c-1.7,0-2.5-1.2-2.5-3.3c0-2.4,1.1-3.4,3-3.4
		c1,0,1.9,0.3,2.5,0.5v6.2c0,2.1-1.2,2.6-3,2.6c-0.7,0-1.3-0.1-1.8-0.2l0.2-1.4C298.8,85.9,299.5,86,300.1,86z M301.3,83.2v-3.5
		c-0.3-0.1-0.6-0.1-0.9-0.1c-1,0-1.3,0.5-1.3,1.9c0,1.3,0.3,1.8,1.2,1.8C300.7,83.4,301,83.3,301.3,83.2z"/>
</g>
<g class="st1">
	<path d="M287.2,100.8c1.5-1.2,2.8-2.3,3.6-3.1c0.9-1,1.6-2,1.6-3c0-1-0.7-1.4-1.6-1.4c-0.7,0-1.4,0.2-2,0.4l-0.3-0.8
		c0.7-0.3,1.5-0.5,2.4-0.5c1.5,0,2.5,0.8,2.5,2.2c0,1.2-0.7,2.4-1.9,3.6c-0.8,0.9-1.8,1.6-2.7,2.4l0,0.1h3.8l-0.2,0.9h-5.4
		L287.2,100.8z"/>
	<path d="M294.7,95c0-0.6,0.2-1.2,0.5-1.8c0.4-0.5,0.9-0.8,1.6-0.8c1,0,1.7,0.6,1.7,1.7c0,0.6-0.2,1.2-0.5,1.8
		c-0.4,0.5-0.9,0.8-1.6,0.8C295.3,96.7,294.7,96.1,294.7,95z M297.4,95.4c0.2-0.4,0.3-0.9,0.3-1.3c0-0.6-0.3-1-0.9-1
		c-0.5,0-0.8,0.3-1,0.6c-0.2,0.4-0.3,0.9-0.3,1.3c0,0.6,0.3,1,0.9,1C296.9,96,297.2,95.8,297.4,95.4z M301.5,92.6h0.9l-6,9h-0.9
		L301.5,92.6z M300,98.3c0.4-0.5,0.9-0.8,1.6-0.8c1,0,1.7,0.6,1.7,1.7c0,0.6-0.2,1.2-0.5,1.8c-0.4,0.5-0.9,0.8-1.6,0.8
		c-1,0-1.7-0.6-1.7-1.7C299.5,99.5,299.6,98.8,300,98.3z M301.2,101c0.5,0,0.8-0.3,1-0.6c0.2-0.4,0.3-0.9,0.3-1.3c0-0.6-0.3-1-0.9-1
		c-0.5,0-0.8,0.3-1,0.6c-0.2,0.4-0.3,0.9-0.3,1.3C300.3,100.6,300.5,101,301.2,101z"/>
</g>
<g>
	<path d="M352,57.6c1-0.1,2.1-0.2,2.8-0.2c2.1,0,3.7,0.7,3.7,3s-1.6,3.1-3.7,3.1c-0.3,0-0.7,0-1.1-0.1v3.1H352V57.6z M354.8,62
		c1.2,0,1.9-0.3,1.9-1.5c0-1.2-0.7-1.5-1.9-1.5c-0.4,0-0.8,0-1.1,0.1v2.9C354.1,61.9,354.5,62,354.8,62z"/>
	<path d="M359.4,60.1h1.7v4.2c0,0.6,0.3,1,0.9,1c0.4,0,0.9-0.2,1.2-0.3v-4.8h1.7v6.5h-1.2l-0.1-0.5c-0.5,0.4-1.2,0.6-2,0.6
		c-1.5,0-2.2-1-2.2-2.2V60.1z"/>
	<path d="M366.4,60.1h1.2l0.1,0.5c0.4-0.3,1-0.6,1.8-0.6c0.7,0,1.3,0.3,1.6,0.7c0.6-0.4,1.2-0.7,2-0.7c1.4,0,2.1,1,2.1,2.3v4.3h-1.7
		v-4.1c0-0.6-0.3-1-0.9-1c-0.3,0-0.7,0.1-1.1,0.3c0,0.2,0,0.3,0,0.5v4.3H370v-4.1c0-0.6-0.3-1-0.9-1c-0.4,0-0.8,0.1-1.1,0.3v4.9
		h-1.7V60.1z"/>
	<path d="M378.5,69.1h-1.7v-9h1.2l0.2,0.4c0.4-0.3,0.9-0.6,1.8-0.6c1.6,0,2.5,1.1,2.5,3.3c0,2.3-1,3.4-2.8,3.4
		c-0.4,0-0.8-0.1-1.1-0.1V69.1z M379.4,65.3c1,0,1.3-0.5,1.3-1.9c0-1.4-0.3-2-1.1-2c-0.4,0-0.8,0.1-1.1,0.3v3.5
		C378.8,65.2,379.1,65.3,379.4,65.3z"/>
	<path d="M383.3,65c0.5,0.1,1.3,0.2,1.8,0.2c0.7,0,1.1-0.1,1.1-0.5c0-0.4-0.5-0.5-1.5-0.8c-1.1-0.4-1.8-0.9-1.8-1.9c0-1.3,1-2,2.7-2
		c0.6,0,1.3,0.1,1.8,0.2l-0.2,1.4c-0.5-0.1-1.1-0.2-1.7-0.2c-0.7,0-1,0.2-1,0.5c0,0.4,0.6,0.5,1.5,0.8c1.1,0.4,1.8,0.9,1.8,2
		c0,1.3-0.9,2.1-2.9,2.1c-0.7,0-1.4-0.1-2-0.2L383.3,65z"/>
</g>
<g class="st1">
	<path d="M351.5,82.2c0.7,0.2,1.6,0.4,2.3,0.4c0.9,0,1.5-0.3,1.8-0.8c0.3-0.4,0.4-1.1,0.4-1.6c0-1-0.5-1.4-1.8-1.4h-2.1l0.9-4.5h4.5
		l-0.2,0.9h-3.5l-0.6,2.7h1c1.8,0,2.7,0.7,2.7,2.2c0,0.8-0.3,1.7-0.8,2.3c-0.6,0.8-1.6,1-2.6,1c-0.8,0-1.7-0.1-2.5-0.4L351.5,82.2z"
		/>
	<path d="M358.7,76.8c0-0.6,0.2-1.2,0.5-1.8c0.4-0.5,0.9-0.8,1.6-0.8c1,0,1.7,0.6,1.7,1.7c0,0.6-0.2,1.2-0.5,1.8
		c-0.4,0.5-0.9,0.8-1.6,0.8C359.3,78.4,358.7,77.9,358.7,76.8z M361.4,77.1c0.2-0.4,0.3-0.9,0.3-1.3c0-0.6-0.3-1-0.9-1
		c-0.5,0-0.8,0.3-1,0.6c-0.2,0.4-0.3,0.9-0.3,1.3c0,0.6,0.3,1,0.9,1C360.9,77.7,361.2,77.5,361.4,77.1z M365.5,74.3h0.9l-6,9h-0.9
		L365.5,74.3z M363.9,80c0.4-0.5,0.9-0.8,1.6-0.8c1,0,1.7,0.6,1.7,1.7c0,0.6-0.2,1.2-0.5,1.8c-0.4,0.5-0.9,0.8-1.6,0.8
		c-1,0-1.7-0.6-1.7-1.7C363.5,81.2,363.6,80.6,363.9,80z M365.2,82.8c0.5,0,0.8-0.3,1-0.6c0.2-0.4,0.3-0.9,0.3-1.3
		c0-0.6-0.3-1-0.9-1c-0.5,0-0.8,0.3-1,0.6c-0.2,0.4-0.3,0.9-0.3,1.3C364.3,82.4,364.5,82.8,365.2,82.8z"/>
</g>
<g>
	<path class="st0" d="M589.6,332.7c-7.6,0-17.6-0.4-18.2-0.4l0-1c8.1,0.3,24,0.8,26.3,0l0.3,0.9
		C597.1,332.5,593.6,332.7,589.6,332.7z"/>
</g>
<g>
	<g>
		<g>
			<g>
				<path class="st2" d="M388,320l-58.1-178.9c19.8-6.4,37.3-9.2,58.1-9.2V320z"/>
				<path class="st3" d="M388.5,323.1l-59.2-182.3l0.5-0.2c19.9-6.5,37.3-9.2,58.3-9.2h0.5V323.1z M330.5,141.5l57,175.4V132.4
					C367.1,132.5,350,135.2,330.5,141.5z"/>
			</g>
		</g>
	</g>
	<g>
		<g>
			<g>
				<path class="st0" d="M388,320l-82.4-169c7.5-3.6,16.4-7.3,24.3-9.8L388,320z"/>
				<path class="st3" d="M387.6,320.2l-82.7-169.5l0.4-0.2c7.5-3.7,16.4-7.3,24.4-9.9l0.5-0.2l0.2,0.5l58.1,178.9L387.6,320.2z
					 M306.2,151.2l79.1,162.2l-55.7-171.6C321.9,144.3,313.5,147.7,306.2,151.2z"/>
			</g>
		</g>
	</g>
	<g>
		<g>
			<g>
				<path class="st4" d="M388,320L250.5,191.7c17-18.2,32.7-29.8,55.1-40.8L388,320z"/>
				<path class="st3" d="M389.6,322.2L249.8,191.8l0.3-0.4c17.2-18.4,32.6-29.9,55.2-40.9l0.4-0.2L389.6,322.2z M251.2,191.7
					l135.2,126.1l-81-166.2C283.2,162.5,268,173.7,251.2,191.7z"/>
			</g>
		</g>
	</g>
	<g>
		<g>
			<g>
				<path class="st5" d="M388,320l-166-88.3c7.8-14.7,17.2-27.8,28.5-40L388,320z"/>
				<path class="st3" d="M391.1,322.2l-169.8-90.3l0.2-0.4c7.8-14.7,17.2-27.9,28.6-40.1l0.3-0.4l0.4,0.3L391.1,322.2z M222.6,231.5
					l162.3,86.3L250.5,192.4C239.4,204.4,230.3,217.1,222.6,231.5z"/>
			</g>
		</g>
	</g>
	<g>
		<g>
			<g>
				<path class="st6" d="M388,320l-175.6-67.4c3-7.8,5.6-13.6,9.5-20.9L388,320z"/>
				<path class="st3" d="M387.8,320.5l-176-67.6l0.2-0.5c3-7.7,5.6-13.6,9.5-21l0.2-0.4l0.4,0.2l166,88.3L387.8,320.5z M213.1,252.3
					l167.5,64.3l-158.4-84.2C218.5,239.3,215.9,245,213.1,252.3z"/>
			</g>
		</g>
	</g>
	<g>
		<g>
			<g>
				<path class="st7" d="M388,320l-186.7-22.9c2-16.5,5.1-29,11.1-44.5L388,320z"/>
				<path class="st3" d="M392,321l-191.2-23.5l0.1-0.5c2-16.5,5.1-29,11.1-44.6l0.2-0.5L392,321z M201.9,296.6L384,319l-171.3-65.8
					C207,268.3,203.9,280.6,201.9,296.6z"/>
			</g>
		</g>
	</g>
	<g>
		<g>
			<g>
				<path class="st8" d="M388,320l-187.8-9.8c0.2-4.1,0.6-9,1.1-13.1L388,320z"/>
				<path class="st3" d="M388,320.5l-188.3-9.9l0-0.5c0.2-4.2,0.6-9,1.1-13.1l0.1-0.5l187.2,23L388,320.5z M200.7,309.7l173,9.1
					l-172-21.1C201.3,301.5,201,305.8,200.7,309.7z"/>
			</g>
		</g>
	</g>
	<g>
		<g>
			<g>
				<path class="st9" d="M388,320l-178.9,58.1c-7.7-23.7-10.3-43.1-8.9-68L388,320z"/>
				<path class="st3" d="M208.8,378.7l-0.2-0.5c-7.8-23.9-10.3-43-9-68.1l0-0.5l0.5,0l190.5,10L208.8,378.7z M200.7,310.7
					c-1.2,24.6,1.2,43.4,8.8,66.8l175.8-57.1L200.7,310.7z"/>
			</g>
		</g>
	</g>
	<g>
		<g>
			<g>
				<path class="st10" d="M388,320L277.5,472.1c-33.6-24.4-55.5-54.5-68.3-94L388,320z"/>
				<path class="st3" d="M277.6,472.8l-0.4-0.3c-33.8-24.6-55.6-54.5-68.5-94.3l-0.2-0.5l0.5-0.2L389.3,319L277.6,472.8z
					 M209.8,378.4c12.8,39.1,34.3,68.7,67.6,93l109.3-150.5L209.8,378.4z"/>
			</g>
		</g>
	</g>
	<g>
		<g>
			<g>
				<path class="st11" d="M388,320l130.6,135.3c-65.7,63.5-167.2,70.6-241.2,16.9L388,320z"/>
				<path class="st3" d="M388,508.6c-38.7,0-77.5-11.9-110.8-36.1l-0.4-0.3l0.3-0.4L388,319.2l131.4,136.1l-0.4,0.3
					C482.7,490.7,435.5,508.6,388,508.6z M278.2,472c73.6,53.2,174.3,46.1,239.8-16.8L388.1,320.8L278.2,472z"/>
			</g>
		</g>
	</g>
	<g>
		<g>
			<g>
				<path class="st12" d="M388,320l32.7-185.2c102.3,18,170.6,115.6,152.5,217.9c-7.2,40.9-24.7,73.8-54.6,102.6L388,320z"/>
				<path class="st3" d="M518.6,456l-0.3-0.4L387.5,320.2l0-0.3l32.7-185.7l0.5,0.1c49.6,8.7,92.8,36.3,121.7,77.5
					c28.9,41.3,40,91.3,31.2,140.9c-7.3,41.2-24.6,73.9-54.7,102.9L518.6,456z M388.6,319.8l130.1,134.7
					c29.7-28.8,46.9-61.2,54.1-102c8.7-49.3-2.3-99.1-31.1-140.2c-28.6-40.9-71.4-68.2-120.6-77L388.6,319.8z"/>
			</g>
		</g>
	</g>
	<g>
		<g>
			<g>
				<path class="st13" d="M388,320l22.9-186.7c4.1,0.5,5.6,0.7,9.7,1.5L388,320z"/>
				<path class="st3" d="M388.5,320.1l-1-0.1l23-187.2l0.5,0.1c4.1,0.5,5.7,0.7,9.8,1.5l0.5,0.1L388.5,320.1z M411.4,133.9
					l-20.5,167.2l29.3-165.9C416.5,134.6,414.9,134.3,411.4,133.9z"/>
			</g>
		</g>
	</g>
	<g>
		<g>
			<g>
				<path class="st14" d="M388,320V131.9c8.3,0,14.7,0.4,22.9,1.4L388,320z"/>
				<path class="st3" d="M388.5,320l-1-0.1V131.4h0.5c8.3,0,14.7,0.4,23,1.4l0.5,0.1l-0.1,0.5L388.5,320z M388.5,132.4v179.4
					l21.9-178.1C402.6,132.8,396.4,132.4,388.5,132.4z"/>
			</g>
		</g>
	</g>
</g>
<g>
	<g>
	</g>
	<g>
	</g>
	<g>
	</g>
	<g>
	</g>
	<g>
	</g>
	<g>
	</g>
	<g>
	</g>
	<g>
	</g>
	<g>
	</g>
	<g>
	</g>
	<g>
	</g>
	<g>
	</g>
	<g>
	</g>
</g>
<g>
	<g>
		<g>
			<g>
				<path class="st15" d="M384.8,207.3L384.8,207.3C384.7,207.3,384.7,207.3,384.8,207.3c-0.1-0.1,0-0.1,0-0.1
					C384.8,207.2,384.9,207.2,384.8,207.3C384.9,207.3,384.8,207.3,384.8,207.3L384.8,207.3L384.8,207.3
					C384.8,207.3,384.9,207.3,384.8,207.3c0.1-0.1,0-0.1,0-0.1C384.7,207.2,384.7,207.2,384.8,207.3
					C384.7,207.3,384.7,207.3,384.8,207.3L384.8,207.3z"/>
			</g>
		</g>
	</g>
	<g>
		<g>
		</g>
	</g>
</g>
<g class="st1">
</g>
<g>
	<path d="M97.3,324.6H99v3.6h3.5v-3.6h1.8v9h-1.8v-3.9H99v3.9h-1.8V324.6z"/>
	<path d="M108.4,327c2.2,0,3,1.3,3,3.4c0,2.1-0.8,3.4-3,3.4s-3-1.3-3-3.4C105.5,328.3,106.3,327,108.4,327z M108.4,332.3
		c1.1,0,1.3-0.9,1.3-1.9c0-1.1-0.1-1.9-1.3-1.9s-1.3,0.9-1.3,1.9C107.2,331.5,107.3,332.3,108.4,332.3z"/>
	<path d="M112.8,328.5h-1v-1.2l1.1-0.1l0.1-1.9h1.5v1.8h1.6v1.4h-1.6v3.2c0,0.5,0.2,0.6,0.5,0.6c0.3,0,0.7-0.1,0.9-0.2l0.4,1.3
		c-0.4,0.2-1,0.3-1.6,0.3c-1.1,0-1.9-0.6-1.9-1.9V328.5z"/>
	<path d="M120.1,324.6h1.8c0.4,2.3,1.1,5.4,1.5,7.4h0.1c0.4-2,1-5.1,1.3-7.4h2.6c0.3,2.3,0.9,5.4,1.3,7.4h0.1c0.5-2,1.1-5.1,1.5-7.4
		h1.8c-0.6,3.1-1.4,6.8-2.2,9h-2.4c-0.4-2-1-4.9-1.3-7.2h-0.1c-0.4,2.3-0.9,5.2-1.3,7.2h-2.4C121.6,331.4,120.7,327.7,120.1,324.6z"
		/>
	<path d="M135,329.7c0.4,0,0.6,0,1,0.1v-0.2c0-0.7-0.3-1-1.2-1c-0.5,0-1.3,0.1-1.8,0.2l-0.3-1.4c0.6-0.1,1.4-0.3,2.2-0.3
		c1.7,0,2.7,0.7,2.7,2.3v4.3h-1.2l-0.2-0.5c-0.4,0.3-1,0.6-1.8,0.6c-1.2,0-2.2-0.7-2.2-2C132.2,330.4,133.2,329.7,135,329.7z
		 M134.8,332.4c0.4,0,0.9-0.2,1.1-0.4v-1.2c-0.3,0-0.7-0.1-0.9-0.1c-0.7,0-1.1,0.3-1.1,0.8C133.9,332.2,134.3,332.4,134.8,332.4z"/>
	<path d="M139.4,328.5h-1v-1.2l1.1-0.1l0.1-1.9h1.5v1.8h1.6v1.4H141v3.2c0,0.5,0.2,0.6,0.5,0.6c0.3,0,0.7-0.1,0.9-0.2l0.4,1.3
		c-0.4,0.2-1,0.3-1.6,0.3c-1.1,0-1.9-0.6-1.9-1.9V328.5z"/>
	<path d="M146.3,327c1.7,0,2.6,1,2.6,2.9c0,0.3,0,0.8-0.1,1.1h-3.6c0.1,0.9,0.5,1.3,1.4,1.3c0.6,0,1.3-0.2,1.8-0.4l0.5,1.3
		c-0.7,0.3-1.5,0.5-2.3,0.5c-2,0-3-1.1-3-3.3C143.4,328.2,144.4,327,146.3,327z M147.2,329.7c0-0.8-0.3-1.2-1-1.2
		c-0.7,0-1,0.5-1.1,1.2H147.2z"/>
	<path d="M150,327.2h1.2l0.2,0.7c0.5-0.6,1.1-0.9,1.8-0.9c0.2,0,0.5,0,0.8,0.1l-0.1,1.5c-0.3,0-0.5-0.1-0.7-0.1
		c-0.7,0-1.1,0.2-1.5,0.5v4.6H150V327.2z"/>
</g>
<g class="st1">
</g>
<g class="st1">
	<path d="M138.7,343.2c0.6-1.2,1.5-1.9,3-1.9c0.7,0,1.4,0.1,2.1,0.3l-0.2,0.9c-0.6-0.2-1.3-0.3-1.8-0.3c-1.4,0-2.2,0.9-2.7,3.2
		c0.5-0.2,1.2-0.3,2-0.3c1.3,0,2.4,0.5,2.4,2.2c0,0.8-0.3,1.7-0.8,2.4c-0.5,0.7-1.3,1-2.4,1c-1.7,0-2.6-0.9-2.6-2.7
		C137.6,346.6,138,344.6,138.7,343.2z M140.2,349.7c0.7,0,1.2-0.2,1.6-0.7c0.4-0.5,0.5-1.3,0.5-1.8c0-1-0.6-1.4-1.6-1.4
		c-0.6,0-1.3,0.1-1.8,0.3c-0.1,0.6-0.2,1.2-0.2,1.7C138.6,349,139.1,349.7,140.2,349.7z"/>
	<path d="M145,343.9c0-0.6,0.2-1.2,0.5-1.8c0.4-0.5,0.9-0.8,1.6-0.8c1,0,1.7,0.6,1.7,1.7c0,0.6-0.2,1.2-0.5,1.8
		c-0.4,0.5-0.9,0.8-1.6,0.8C145.6,345.5,145,345,145,343.9z M147.7,344.3c0.2-0.4,0.3-0.9,0.3-1.3c0-0.6-0.3-1-0.9-1
		c-0.5,0-0.8,0.3-1,0.6c-0.2,0.4-0.3,0.9-0.3,1.3c0,0.6,0.3,1,0.9,1C147.2,344.8,147.5,344.6,147.7,344.3z M151.8,341.4h0.9l-6,9
		h-0.9L151.8,341.4z M150.2,347.1c0.4-0.5,0.9-0.8,1.6-0.8c1,0,1.7,0.6,1.7,1.7c0,0.6-0.2,1.2-0.5,1.8c-0.4,0.5-0.9,0.8-1.6,0.8
		c-1,0-1.7-0.6-1.7-1.7C149.8,348.3,149.9,347.7,150.2,347.1z M151.5,349.9c0.5,0,0.8-0.3,1-0.6c0.2-0.4,0.3-0.9,0.3-1.3
		c0-0.6-0.3-1-0.9-1c-0.5,0-0.8,0.3-1,0.6c-0.2,0.4-0.3,0.9-0.3,1.3C150.6,349.5,150.8,349.9,151.5,349.9z"/>
</g>
<g>
	<polygon class="st0" points="358.1,139.8 350.9,122.9 354.5,93.1 355.5,93.3 352,122.8 359,139.4 	"/>
</g>
</svg>
