<?xml version="1.0" encoding="utf-8"?>
<!-- Generator: Adobe Illustrator 22.1.0, SVG Export Plug-In . SVG Version: 6.00 Build 0)  -->
<svg version="1.1" id="Layer_1" xmlns="http://www.w3.org/2000/svg" xmlns:xlink="http://www.w3.org/1999/xlink" x="0px" y="0px"
	 viewBox="0 0 302 91" style="enable-background:new 0 0 302 91;" xml:space="preserve">
<style type="text/css">
	.st0{fill:#06A1F9;}
	.st1{fill:#86D86D;}
	.st2{opacity:0.56;fill:none;stroke:#231F20;stroke-width:5;stroke-miterlimit:10;enable-background:new    ;}
</style>
<g>
	<path class="st0" d="M127.8,83.5h-3.7V61.6c0-3.4-0.8-6-2.5-7.8s-4.1-2.7-7.2-2.7c-3,0-5.5,0.9-7.3,2.7s-2.7,4.2-2.7,7.2v22.5h-3.7
		V61.6c0-3.4-0.8-6-2.5-7.8s-4.1-2.7-7.2-2.7c-2.1,0-3.9,0.4-5.4,1.2s-2.6,2-3.4,3.6S81,59.4,81,61.6v21.8h-3.7V48.3H81v4.2
		c2.6-3.1,6.1-4.6,10.5-4.6c1.7,0,3.3,0.3,4.8,0.7c1.5,0.5,2.7,1.2,3.8,2.1c1.1,0.9,2,2.1,2.7,3.5c2.7-4.3,6.7-6.4,12-6.4
		c1.9,0,3.7,0.3,5.3,0.9c1.6,0.6,2.9,1.4,4,2.5c2.5,2.3,3.7,5.6,3.7,9.8V83.5z"/>
	<path class="st0" d="M165.9,83.5h-3.8V80c-1.5,1.5-3,2.5-4.6,3.1s-3.6,0.9-6.1,0.9c-1.7,0-3.2-0.1-4.5-0.3c-1.3-0.2-2.4-0.6-3.4-1
		c-0.9-0.5-1.8-1.1-2.5-1.9c-1.7-1.8-2.5-4-2.5-6.9c0-3.2,1.1-5.7,3.3-7.5s5.2-2.7,9-2.7h11.4v-4c0-2.9-0.8-5.1-2.3-6.5
		c-1.6-1.4-4.1-2.1-7.6-2.1c-2.5,0-4.4,0.3-5.9,1c-1.4,0.7-2.7,1.8-3.8,3.4l-2.7-2.4c1-1.4,2.1-2.5,3.2-3.2c1.2-0.8,2.5-1.3,4-1.6
		s3.2-0.5,5.2-0.5c9.1,0,13.7,3.8,13.7,11.5L165.9,83.5L165.9,83.5z M162.2,71.2v-4.5h-10.9c-6,0-9,2.4-9,7.1c0,2.3,0.7,4.1,2.2,5.2
		s3.8,1.7,7,1.7c1.9,0,3.6-0.2,5-0.5s2.7-1.1,3.8-2.2C161.5,76.7,162.2,74.5,162.2,71.2z"/>
	<path class="st0" d="M204.2,83.5h-3.8V80c-1.5,1.5-3,2.5-4.6,3.1s-3.6,0.9-6.1,0.9c-1.7,0-3.2-0.1-4.5-0.3s-2.4-0.6-3.4-1
		c-0.9-0.5-1.8-1.1-2.5-1.9c-1.7-1.8-2.5-4-2.5-6.9c0-3.2,1.1-5.7,3.3-7.5s5.2-2.7,9-2.7h11.4v-4c0-2.9-0.8-5.1-2.3-6.5
		c-1.6-1.4-4.1-2.1-7.6-2.1c-2.5,0-4.4,0.3-5.9,1s-2.7,1.8-3.8,3.4l-2.7-2.4c1-1.4,2.1-2.5,3.2-3.2c1.2-0.8,2.5-1.3,4-1.6
		s3.2-0.5,5.2-0.5c9.1,0,13.7,3.8,13.7,11.5L204.2,83.5L204.2,83.5z M200.5,71.2v-4.5h-10.9c-6,0-9,2.4-9,7.1c0,2.3,0.7,4.1,2.2,5.2
		s3.8,1.7,7,1.7c1.9,0,3.6-0.2,5-0.5s2.7-1.1,3.8-2.2C199.8,76.7,200.5,74.5,200.5,71.2z"/>
	<path class="st0" d="M229.7,83.5h-3.2c-2.7,0-4.8-0.8-6.3-2.4s-2.2-3.9-2.2-6.7v-43h3.7v42.8c0,2,0.4,3.5,1.2,4.5s2.2,1.4,4.2,1.4
		h2.5v3.4H229.7z"/>
	<path class="st0" d="M267.6,83.5H263l-12.1-19.4l-8,9.3v10.1h-3.7v-52h3.7v36.7l17.5-19.9h4.7l-11.6,13.2L267.6,83.5z"/>
	<path class="st0" d="M302,83.5h-3.8V80c-1.5,1.5-3,2.5-4.6,3.1S290,84,287.5,84c-1.7,0-3.2-0.1-4.5-0.3s-2.4-0.6-3.4-1
		c-0.9-0.5-1.8-1.1-2.5-1.9c-1.7-1.8-2.5-4-2.5-6.9c0-3.2,1.1-5.7,3.3-7.5c2.2-1.8,5.2-2.7,9-2.7h11.4v-4c0-2.9-0.8-5.1-2.3-6.5
		c-1.6-1.4-4.1-2.1-7.6-2.1c-2.5,0-4.4,0.3-5.9,1s-2.7,1.8-3.8,3.4l-2.7-2.4c1-1.4,2.1-2.5,3.2-3.2c1.2-0.8,2.5-1.3,4-1.6
		s3.2-0.5,5.2-0.5c9.1,0,13.7,3.8,13.7,11.5v24.2H302z M298.3,71.2v-4.5h-10.9c-6,0-9,2.4-9,7.1c0,2.3,0.7,4.1,2.2,5.2
		s3.8,1.7,7,1.7c1.9,0,3.6-0.2,5-0.5s2.7-1.1,3.8-2.2C297.6,76.7,298.3,74.5,298.3,71.2z"/>
</g>
<g>
	<g>
		<path class="st0" d="M37.7,61.1c24.9-22.7,9.1-34.9,9.1-34.9s4.1,5.9-13.4,20.5C24.6,54,14.6,67,29.8,87
			C29.8,87,25.1,72.6,37.7,61.1z"/>
	</g>
	<path class="st1" d="M57.9,56L57.9,56L57.9,56L57.9,56L57.9,56c-2,0.6-20,6.5-24.3,17.2c-1.9,4.6-1.8,10.6-0.1,12
		c1.6,1.3,7.5,0.5,11.7-2.3C54.7,76.6,57.6,58.1,57.9,56z"/>
	<path class="st0" d="M27,42.2C41.4,21.6,26.8,2.4,22,0c0,0,6.6,9.6-6.2,31.7C11.7,38.6,9,42,7.3,47.2C-1.5,73.9,23.6,89.9,29,91
		c0,0-16.6-18.1-9.8-35.4C20.7,51.7,25,45,27,42.2z"/>
	<path class="st2" d="M31,85.8"/>
	<path class="st2" d="M38.9,62.3"/>
	<path class="st0" d="M33.6,85.2c1.6,1.3,7.5,0.5,11.7-2.3C54.9,76.6,57.8,58.1,58,56l0,0l0,0l0,0l0,0"/>
</g>
</svg>
