<?xml version="1.0" encoding="utf-8"?>
<!-- Generator: Adobe Illustrator 23.0.4, SVG Export Plug-In . SVG Version: 6.00 Build 0)  -->
<svg version="1.1" id="Layer_1" xmlns="http://www.w3.org/2000/svg" xmlns:xlink="http://www.w3.org/1999/xlink" x="0px" y="0px"
	 viewBox="0 0 735 479" style="enable-background:new 0 0 735 479;" xml:space="preserve">
<style type="text/css">
	.st0{fill:#4D4D4D;}
	.st1{fill:#06A1F9;}
	.st2{fill:none;stroke:#06A1F9;stroke-width:2;stroke-miterlimit:10;}
	.st3{fill:#E6E6E6;}
	.st4{enable-background:new    ;}
	.st5{fill:#333333;}
</style>
<title>Artboard 1</title>
<path class="st0" d="M683.2,104v7.7c-5.4,5.4-11.5,10-16.9,15.4c-3.8,3.8-9.2,6.2-10.8,10.8c-2.3,4.6-1.5,10-1.5,15.4
	c0,4.6,6.9,10,11.5,8.5c-0.9-1.6-2-3.1-3.1-4.6c6.2,4.6,6.2,5.4,1.5,8.5c-1.5,0.8-5.4,0.8-6.2,1.5c-3.8,6.9-11.5,6.2-16.9,10
	c-4.2,2.4-8,5.2-11.5,8.5c-1.5,1.5-3.1,5.4-2.3,6.9c5.4,10,0.8,16.9-3.8,23.9c-2.2-1.2-4.5-2.2-6.9-3.1c-0.8,0-0.8,0.8-1.5,0.8
	c14.6,10.8,4.6,21.6,2.3,32.3h-2.3v-14.7h-1.5c0,0.8-0.8,1.5-0.8,3.1c-1.5-2.3-2.3-3.1-3.8-5.4c-1.5,2.3-2.3,3.9-1.5,4.6
	c0.8,3.9,2.3,8.5,3.1,12.3c0.6,1.4,1.4,2.7,2.3,3.9c6.9,2.3,6.9,9.2,10,13.9c3.1,6.2,1.5,9.2-4.6,12.3c-1.5,0.8-2.3,3.1-3.8,4.6
	c2.3,0.8,3.8,0.8,6.2,1.5c-3.1,2.3-4.6,4.6-6.9,5.4c-10,3.1-12.3,16.2-22.3,19.2c-0.8,0-1.5,2.3-1.5,3.1
	c-0.8,7.7-6.9,12.3-11.5,16.9c-6.2,6.2-10.8,13.1-11.5,22.3c-0.1,8.9,2.3,17.7,6.9,25.4c3.8,6.2,8.5,11.5,11.5,18.5
	c5.4,11.5,11.5,22.3,10,36.2c-0.8,6.9-2.3,11.5-10,15.4l6.9-6.9l-0.8-0.8l-6.9,2.3c-2.3-3.1-4.6-6.9-6.9-9.2
	c-3.8-3.9-9.2-5.4-12.3-10c-6.2-8.5-13.1-16.9-11.5-29.2c0.8-2.3-1.5-5.4-3.1-7.7c-3.1-3.1-6.9-5.4-10.8-8.5s-7.7-5.4-12.3,0
	c-3.1,3.1-6.9,5.4-12.3,2.3c-3.9-3.1-9.2-5.4-13.9-5.4c-5.4-0.8-11.5,0.8-17.7,1.5l-1.5-3.1c-4.6,1.5-6.9,3.1-10.8,3.1
	c-4.6-0.8-10-0.8-13.1,6.2c1.9-0.6,3.7-1.4,5.4-2.3c0.8,0,0.8,0.8,1.5,0.8c-0.8,2.3-2.3,4.6-3.9,7.7c1.4,0.9,3,1.4,4.6,1.5
	c1.5,0.9,3,1.7,4.6,2.3c-4.6,3.1-4.6,3.1-13.1-2.3c-0.8,2.3-2.3,3.9-3.9,6.9c-0.4-1.6-0.9-3.1-1.5-4.6c-6.2,6.2-10.8,5.4-14.6-1.5
	c-1.5-2.3-5.4-3.1-8.5-4.6c0,0.8-0.8,0.8-0.8,1.5c1.5,0.8,2.3,1.5,3.9,1.5c-6.2,0.8-12.3-0.8-17.7-0.8c-6.2,0-13.1,0.8-18.5,3.9
	c-11.5,6.2-21.6,14.6-33.1,21.6c-3.9,2.3-5.4,4.6-5.4,9.2v23.1c-5.5-1.4-10.9-3.2-16.2-5.4c-7.7-3.1-12.3-8.5-12.3-16.9
	c0-1.5-1.5-3.1-2.3-4.6c-3.9-6.2-9.2-10.8-11.5-18.5c-2.3-8.5-9.2-13.9-18.5-16.2c-5.4-1.5-8.5,0-10.8,4.6c-1.7,2.5-3.3,5-4.6,7.7
	c-4.6-2.3-8.5-4.6-12.3-6.2c-4.6-2.3-7.7-6.2-7.7-11.5c-0.8-13.9-15.4-17.7-20.8-28.5h-1.4c-6.2-0.8-13.1-1.5-19.2-2.3l-2.3,6.9
	c-6.9-0.8-13.1-2.3-20-2.3c-23.1-2.3-40.8-17.7-59.3-28.5c-3.1-1.5-6.2-3.9-9.2-3.9c-5.4-0.8-11.6-1.5-16.9-2.3
	c-1.9-1.1-3.5-2.7-4.6-4.6c-0.8-6.9-2.3-13.1-10-16.2c-0.8,0-0.8-1.5-1.5-1.5c-6.2-6.2-10.8-13.1-19.2-15.4
	c-3.8-0.8-3.8-2.3-3.8-5.4c0-4.6-0.8-8.5-1.5-13.1c-0.8-3.1-3.1-6.2-4.6-8.5c-2.3-4.6-3.8-8.5,0-11.6c-1.5-4.6-3.1-8.5-4.6-13.1
	c-1.5-6.2-0.8-12.3-3.8-17.7c-3.8-5.7-4.7-12.8-2.3-19.3c0.8-3.1,1.5-7.7-3.1-9.2v-2.3c5.4-7.7,11.5-16.2,9.2-26.9
	c-0.8-3.9,0.8-8.5,2.3-12.3c6.1-14.6,13.8-28.5,19.2-43.1c2.3-6.2,1.5-13.9,2.3-20.8V60.1c7.7,2.3,12.3,10.8,20.8,6.2
	c0,1.5,0.8,2.3,0.8,3.8h1.5c-0.8-4.6-1.5-8.5-2.3-13.1h2.3c6.9,2.3,13.9,3.8,20.8,6.2c80.1,20,160.9,32.3,244,31.6
	c4.6,0,9.2,0.8,10-7.7c1.5,3.1,3.1,3.8,3.1,5.4c0,4.6,2.3,6.9,6.9,6.9c6.9,0.8,13.1,2.3,20,3.8c3.1,0.8,6.9,3.1,10,3.1
	c5.4,0.8,10.8,0,16.9,0c0,0.8,0.8,1.5,0.8,3.1c-10.8,2.3-18.5,9.2-23.9,19.2c4.6-1.5,7.7-3.1,11.5-4.6v4.6
	c13.1,1.5,19.2-11.6,30.8-13.9l-4.6,6.9c3.1,1.5,6.9,1.5,7.7,3.1c3.9,5.4,7.7,3.1,12.3,1.5s9.2-3.1,14.6-5.4c0.8,9.2,6.2,3.1,10,3.8
	c0.8,2.3,1.5,5.4,2.3,7.7c-16.2,1.5-33.9,0.8-38.5,23.9c2.3-3.9,4.6-6.2,6.9-9.2c-1.5,10-3.1,18.5-4.6,28.5
	c-0.8,10,0.8,19.2,8.5,26.2c9.1-5.2,12.3-16.8,7.1-25.9c0-0.1-0.1-0.2-0.1-0.2c-0.8-1.5-2.3-3.1-2.3-5.4
	c-1.5-13.1,6.2-23.1,13.9-32.3c0.8-0.8,3.9-0.8,5.4-0.8c2.3,0,3.9,1.5,6.2,2.3c8.5,3.1,11.6,15.4,5.4,22.3c-0.8,1.5-0.8,3.1-1.5,4.6
	c0.8,0,1.5,0.8,2.3,0.8c1.5-1.5,2.3-3.9,3.8-5.4c0.8-0.8,3.1-2.3,4.6-1.5c3.8,1.5,8.5,17.7,6.2,21.6c-2.9,4.2-5.4,8.6-7.7,13.1
	c6.9,3.1,11.5,5.4,17.7,0.8s13.9-8.5,20-13.1c5.4-4.6,13.1-8.5,6.2-18.5c5.4-0.8,9.2-1.5,13.1-2.3c4.6-0.8,9.2-1.5,13.9-3.9
	c1.5-0.8,3.8-6.2,3.1-6.9c-3.8-4.6-0.8-6.9,2.3-10c1.3-1.4,2.3-2.9,3.1-4.6c2.3-4.6,5.4-6.2,10.8-7.7c10.8-2.3,22.3-3.1,31.6-11.6
	c4.6-4.6,6.9-9.2,6.2-13.9c-0.8-8.5,1.5-16.2,4.6-23.1c3.1,0,5.4,0,6.9-0.8c4.6-2.3,8.5-1.5,10,3.8c1.5,4.6,2.3,9.2,3.8,13.1
	C673.2,98.6,676.2,103.2,683.2,104z"/>
<ellipse transform="matrix(0.7071 -0.7071 0.7071 0.7071 13.0606 399.796)" class="st1" cx="489.1" cy="184.1" rx="9" ry="9"/>
<ellipse transform="matrix(0.7071 -0.7071 0.7071 0.7071 70.8258 509.2519)" class="st1" cx="650.1" cy="169.1" rx="9" ry="9"/>
<circle class="st1" cx="80.1" cy="127.1" r="9"/>
<line class="st2" x1="489" y1="184" x2="489" y2="334"/>
<line class="st2" x1="650" y1="169" x2="650" y2="213"/>
<line class="st2" x1="80" y1="127" x2="80" y2="220"/>
<rect x="411.8" y="311" class="st3" width="158" height="38"/>
<rect x="581.6" y="213" class="st3" width="136" height="38"/>
<rect x="20" y="220" class="st3" width="117" height="38"/>
<g class="st4">
	<path class="st5" d="M53.8,232H61l-0.2,1.3h-5.7l-0.8,4.4H59l-0.2,1.3h-4.7l-0.8,4.8h5.7l-0.2,1.3h-7.2L53.8,232z"/>
</g>
<g class="st4">
	<path class="st5" d="M61.4,242.2l1.1-6.5H64l-1.1,6.4c0,0.3-0.1,0.6-0.1,0.8c0,0.8,0.4,1.3,1.4,1.3c0.9,0,1.9-0.5,2.6-0.9l1.3-7.5
		h1.4l-1.7,9.5h-1.1l0-0.8c-0.8,0.6-1.9,1-3,1c-1.5,0-2.5-0.8-2.5-2.3C61.3,242.8,61.4,242.5,61.4,242.2z"/>
	<path class="st5" d="M74,247.9c1,0,1.9-0.3,2.2-1.8l0.2-1.3c-0.6,0.3-1.4,0.6-2.3,0.6c-1.9,0-3-1.1-3-3.3c0-1.2,0.3-2.9,0.9-4.2
		c0.7-1.5,1.8-2.3,3.7-2.3c1.1,0,2.4,0.3,3.5,0.8l-1.7,9.8c-0.4,2.2-1.7,3-3.7,3c-1,0-2-0.2-3.1-0.5l0.3-1.3
		C72,247.7,73.1,247.9,74,247.9z M76.6,243.5l1.1-6.4c-0.6-0.2-1.3-0.3-1.9-0.3c-1.2,0-1.9,0.5-2.4,1.7c-0.5,1-0.7,2.5-0.7,3.5
		c0,1.3,0.5,2.2,1.8,2.2C75.2,244.1,75.9,243.9,76.6,243.5z"/>
	<path class="st5" d="M82.3,237.4c0.8-1.1,1.8-1.8,3.3-1.8c2,0,3,1.3,3,3.2c0,0.7-0.1,1.5-0.3,2.2h-5.7c0,0.3-0.1,0.6-0.1,0.8
		c0,1.4,0.6,2.3,2.2,2.3c0.8,0,1.7-0.2,2.5-0.6l0.4,1.2c-0.8,0.3-1.8,0.6-2.9,0.6c-2.2,0-3.6-1.2-3.6-3.6
		C81,240.6,81.4,238.7,82.3,237.4z M87,239.9c0.1-0.3,0.1-0.7,0.1-1c0-1.2-0.4-2.1-1.7-2.1c-1.4,0-2.3,1.2-2.7,3H87z"/>
	<path class="st5" d="M91.8,235.8h1.1l0,0.8c0.8-0.6,1.9-1,3-1c1.5,0,2.5,0.8,2.5,2.3c0,0.3,0,0.6-0.1,0.9l-1.1,6.5h-1.4l1.1-6.4
		c0-0.3,0.1-0.6,0.1-0.8c0-0.8-0.4-1.3-1.4-1.3c-0.9,0-1.9,0.5-2.6,0.9l-1.3,7.5h-1.4L91.8,235.8z"/>
	<path class="st5" d="M101.5,237.4c0.8-1.1,1.8-1.8,3.3-1.8c2,0,3,1.3,3,3.2c0,0.7-0.1,1.5-0.3,2.2h-5.7c0,0.3-0.1,0.6-0.1,0.8
		c0,1.4,0.6,2.3,2.2,2.3c0.8,0,1.7-0.2,2.5-0.6l0.4,1.2c-0.8,0.3-1.8,0.6-2.9,0.6c-2.2,0-3.6-1.2-3.6-3.6
		C100.2,240.6,100.6,238.7,101.5,237.4z M106.3,239.9c0.1-0.3,0.1-0.7,0.1-1c0-1.2-0.4-2.1-1.7-2.1c-1.4,0-2.3,1.2-2.7,3H106.3z"/>
</g>
<g class="st4">
	<path class="st5" d="M440.4,326.8c1.1-2,2.8-3,5.1-3c1.1,0,2.3,0.2,3.5,0.6l-0.3,1.3c-1-0.3-2.2-0.5-3.3-0.5
		c-1.8,0-2.9,0.7-3.7,2.3c-0.7,1.5-1.1,3.6-1.1,5.1c0,2.4,1,3.5,3.1,3.5c0.9,0,1.7-0.2,2.3-0.5l0.9-5.1h1.5l-1.1,6
		c-1.2,0.6-2.5,0.9-3.8,0.9c-3,0-4.5-1.6-4.5-4.8C439.1,330.9,439.5,328.5,440.4,326.8z"/>
</g>
<g class="st4">
	<path class="st5" d="M451.7,327.8h1.1l0,0.9c0.8-0.8,1.6-1.1,2.6-1.1c0.4,0,0.8,0.1,1.1,0.1l-0.2,1.4c-0.3-0.1-0.7-0.1-1-0.1
		c-0.9,0-1.7,0.3-2.4,1l-1.3,7.3H450L451.7,327.8z"/>
</g>
<g class="st4">
	<path class="st5" d="M458.1,329.8c0.7-1.5,1.9-2.2,3.7-2.2c1.2,0,2.4,0.3,3.5,0.8l-1.6,8.9h-1.1v-0.7c-0.7,0.5-1.5,0.9-2.5,0.9
		c-1.9,0-2.9-1.2-2.9-3.3C457.1,332.9,457.4,331.1,458.1,329.8z M462.6,335.4l1.1-6.3c-0.7-0.2-1.4-0.4-2-0.4
		c-1.2,0-1.9,0.5-2.4,1.6c-0.5,1-0.8,2.7-0.8,3.7c0,1.3,0.5,2.2,1.8,2.2C461.1,336.2,462,335.8,462.6,335.4z"/>
	<path class="st5" d="M468.5,327.8h1.1l0,0.8c0.8-0.6,1.9-1,3-1c1.5,0,2.5,0.8,2.5,2.3c0,0.3,0,0.6-0.1,0.9l-1.1,6.5h-1.4l1.1-6.4
		c0-0.3,0.1-0.6,0.1-0.8c0-0.8-0.4-1.3-1.4-1.3c-0.9,0-1.9,0.5-2.6,0.9l-1.3,7.5h-1.4L468.5,327.8z"/>
	<path class="st5" d="M477.8,330c0.7-1.6,1.9-2.4,3.7-2.4c0.7,0,1.5,0.1,2.3,0.3l0.7-3.9h1.4l-2.3,13.2h-1.1v-0.7
		c-0.7,0.5-1.5,0.9-2.5,0.9c-1.9,0-2.9-1.2-2.9-3.3C477,332.9,477.3,331.3,477.8,330z M482.4,335.4l1.1-6.3c-0.6-0.2-1.4-0.3-2-0.3
		c-1.2,0-1.9,0.6-2.4,1.7c-0.4,0.9-0.7,2.5-0.7,3.5c0,1.3,0.5,2.1,1.8,2.1C481,336.2,481.8,335.9,482.4,335.4z"/>
	<path class="st5" d="M493.4,324.2c1.2-0.2,2.4-0.3,3.5-0.3c2.5,0,4.2,0.8,4.2,3.3c0,1.2-0.4,2.4-1.4,3.4c-0.5,0.5-1.1,0.8-2,1
		c0.6,1.8,1.4,3.7,2.3,5.7l0,0h-1.6c-0.8-1.8-1.6-3.7-2.2-5.6c-0.9,0-1.8-0.1-2.5-0.2l-1,5.7h-1.5L493.4,324.2z M496.1,330.4
		c1.1,0,1.9-0.2,2.5-0.8c0.6-0.6,0.9-1.6,0.9-2.4c0-1.6-1.2-2.1-2.8-2.1c-0.6,0-1.3,0.1-2,0.1l-0.9,4.9
		C494.5,330.3,495.4,330.4,496.1,330.4z"/>
	<path class="st5" d="M503.1,329.8c0.7-1.5,1.9-2.2,3.7-2.2c1.2,0,2.4,0.3,3.5,0.8l-1.6,8.9h-1.1v-0.7c-0.7,0.5-1.5,0.9-2.5,0.9
		c-1.9,0-2.9-1.2-2.9-3.3C502.1,332.9,502.4,331.1,503.1,329.8z M507.6,335.4l1.1-6.3c-0.7-0.2-1.4-0.4-2-0.4
		c-1.2,0-1.9,0.5-2.4,1.6c-0.5,1-0.8,2.7-0.8,3.7c0,1.3,0.5,2.2,1.8,2.2C506.1,336.2,507,335.8,507.6,335.4z"/>
	<path class="st5" d="M512.6,341h-1.4l2.3-13.2h1.1v0.7c0.7-0.5,1.5-0.9,2.6-0.9c1.9,0,2.9,1.3,2.9,3.4c0,1.1-0.3,2.9-0.8,4.1
		c-0.7,1.6-1.8,2.4-3.7,2.4c-0.7,0-1.5-0.1-2.3-0.3L512.6,341z M515.6,336.2c1.2,0,1.9-0.5,2.4-1.7c0.5-1,0.7-2.5,0.7-3.5
		c0-1.4-0.5-2.2-1.8-2.2c-0.8,0-1.6,0.3-2.2,0.8l-1.1,6.3C514.1,336.1,514.9,336.2,515.6,336.2z"/>
	<path class="st5" d="M523.4,327.8h1.4l-1.7,9.5h-1.4L523.4,327.8z M524.1,324h1.4l-0.3,1.8h-1.4L524.1,324z"/>
	<path class="st5" d="M527.3,330c0.7-1.6,1.9-2.4,3.7-2.4c0.7,0,1.5,0.1,2.3,0.3l0.7-3.9h1.4l-2.3,13.2h-1.1v-0.7
		c-0.7,0.5-1.5,0.9-2.5,0.9c-1.9,0-2.9-1.2-2.9-3.3C526.4,332.9,526.7,331.3,527.3,330z M531.9,335.4l1.1-6.3
		c-0.6-0.2-1.4-0.3-2-0.3c-1.2,0-1.9,0.6-2.4,1.7c-0.4,0.9-0.7,2.5-0.7,3.5c0,1.3,0.5,2.1,1.8,2.1
		C530.5,336.2,531.3,335.9,531.9,335.4z"/>
	<path class="st5" d="M535.7,335.7c0.9,0.3,2,0.5,2.8,0.5c1.1,0,2.2-0.5,2.2-1.6c0-0.9-0.7-1.1-1.8-1.7c-1.3-0.6-2.3-1-2.3-2.5
		c0-1.8,1.4-2.8,3.5-2.8c0.8,0,1.8,0.2,2.7,0.5l-0.4,1.2c-0.8-0.2-1.8-0.4-2.5-0.4c-1,0-1.9,0.5-1.9,1.4c0,0.8,0.7,1,2,1.6
		c1.5,0.7,2.2,1.2,2.2,2.5c0,1.9-1.5,3-3.7,3c-0.9,0-2.1-0.2-3.2-0.5L535.7,335.7z"/>
</g>
<g class="st4">
	<path class="st5" d="M609.2,224.1c1-0.1,2.1-0.3,3.2-0.3c2.6,0,4.5,0.8,4.5,3.4c0,1.2-0.4,2.6-1.5,3.6c-0.9,0.8-2.1,1.2-3.8,1.2
		c-0.7,0-1.5-0.1-2.3-0.2l-0.9,5.3h-1.5L609.2,224.1z M611.6,230.8c1.3,0,2.1-0.2,2.8-0.9c0.7-0.7,0.9-1.8,0.9-2.5
		c0-1.8-1.3-2.2-3.1-2.2c-0.6,0-1.2,0-1.7,0.1l-0.9,5.3C610.2,230.7,610.9,230.8,611.6,230.8z"/>
</g>
<g class="st4">
	<path class="st5" d="M619,227.8h1.1l0,0.9c0.8-0.8,1.6-1.1,2.6-1.1c0.4,0,0.8,0.1,1.1,0.1l-0.2,1.4c-0.3-0.1-0.7-0.1-1-0.1
		c-0.9,0-1.7,0.3-2.4,1l-1.3,7.3h-1.4L619,227.8z"/>
</g>
<g class="st4">
	<path class="st5" d="M625.4,229.8c0.7-1.4,1.9-2.3,3.7-2.3c2.2,0,3.4,1.2,3.4,3.6c0,1.2-0.3,2.7-0.9,4c-0.7,1.4-1.9,2.3-3.7,2.3
		c-2.2,0-3.4-1.2-3.4-3.6C624.4,232.7,624.7,231.1,625.4,229.8z M630.3,234.4c0.5-1,0.7-2.3,0.7-3.3c0-1.3-0.5-2.3-2-2.3
		c-1.1,0-1.9,0.6-2.4,1.7c-0.5,1-0.7,2.3-0.7,3.3c0,1.3,0.5,2.3,2,2.3C629,236.2,629.8,235.6,630.3,234.4z"/>
</g>
<g class="st4">
	<path class="st5" d="M634.4,227.8h1.4c0.2,2.9,0.5,5.6,0.9,8.2h0.1c1.4-2.6,2.6-5.4,3.8-8.2h1.4c-1.3,3.3-3.2,7.3-4.6,9.5h-1.9
		C635.1,235.1,634.6,231.1,634.4,227.8z"/>
	<path class="st5" d="M644.3,227.8h1.4l-1.7,9.5h-1.4L644.3,227.8z M644.9,224h1.4l-0.3,1.8h-1.4L644.9,224z"/>
	<path class="st5" d="M648.1,230c0.7-1.6,1.9-2.4,3.7-2.4c0.7,0,1.5,0.1,2.3,0.3l0.7-3.9h1.4l-2.3,13.2h-1.1v-0.7
		c-0.7,0.5-1.5,0.9-2.5,0.9c-1.9,0-2.9-1.2-2.9-3.3C647.3,232.9,647.6,231.3,648.1,230z M652.8,235.4l1.1-6.3
		c-0.6-0.2-1.4-0.3-2-0.3c-1.2,0-1.9,0.6-2.4,1.7c-0.4,0.9-0.7,2.5-0.7,3.5c0,1.3,0.5,2.1,1.8,2.1
		C651.3,236.2,652.1,235.9,652.8,235.4z"/>
	<path class="st5" d="M658.4,229.4c0.8-1.1,1.8-1.8,3.3-1.8c2,0,3,1.3,3,3.2c0,0.7-0.1,1.5-0.3,2.2h-5.7c0,0.3-0.1,0.6-0.1,0.8
		c0,1.4,0.6,2.3,2.2,2.3c0.8,0,1.7-0.2,2.5-0.6l0.4,1.2c-0.8,0.3-1.8,0.6-2.9,0.6c-2.2,0-3.6-1.2-3.6-3.6
		C657.1,232.6,657.5,230.7,658.4,229.4z M663.2,231.9c0.1-0.3,0.1-0.7,0.1-1c0-1.2-0.4-2.1-1.7-2.1c-1.4,0-2.3,1.2-2.7,3H663.2z"/>
	<path class="st5" d="M667.9,227.8h1.1l0,0.8c0.8-0.6,1.9-1,3-1c1.5,0,2.5,0.8,2.5,2.3c0,0.3,0,0.6-0.1,0.9l-1.1,6.5h-1.4l1.1-6.4
		c0-0.3,0.1-0.6,0.1-0.8c0-0.8-0.4-1.3-1.4-1.3c-0.9,0-1.9,0.5-2.6,0.9l-1.3,7.5h-1.4L667.9,227.8z"/>
</g>
<g class="st4">
	<path class="st5" d="M677.8,229.6c0.8-1.4,2-2.1,3.7-2.1c0.9,0,1.8,0.2,2.7,0.4l-0.3,1.2c-0.8-0.2-1.7-0.4-2.4-0.4
		c-1.1,0-1.9,0.4-2.5,1.5c-0.5,0.9-0.8,2.4-0.8,3.4c0,1.6,0.7,2.4,2.3,2.4c0.7,0,1.5-0.2,2.3-0.5l0.3,1.2c-0.8,0.3-1.7,0.6-2.7,0.6
		c-2.2,0-3.6-1.1-3.6-3.6C676.8,232.7,677.1,230.9,677.8,229.6z"/>
</g>
<g class="st4">
	<path class="st5" d="M686.1,229.4c0.8-1.1,1.8-1.8,3.3-1.8c2,0,3,1.3,3,3.2c0,0.7-0.1,1.5-0.3,2.2h-5.7c0,0.3-0.1,0.6-0.1,0.8
		c0,1.4,0.6,2.3,2.2,2.3c0.8,0,1.7-0.2,2.5-0.6l0.4,1.2c-0.8,0.3-1.8,0.6-2.9,0.6c-2.2,0-3.6-1.2-3.6-3.6
		C684.9,232.6,685.2,230.7,686.1,229.4z M690.9,231.9c0.1-0.3,0.1-0.7,0.1-1c0-1.2-0.4-2.1-1.7-2.1c-1.4,0-2.3,1.2-2.7,3H690.9z"/>
</g>
<circle class="st1" cx="108" cy="86.8" r="9"/>
<line class="st2" x1="108" y1="91.1" x2="108" y2="184.1"/>
<rect x="49.5" y="159.1" class="st3" width="117" height="38"/>
<g class="st4">
	<path class="st5" d="M83.2,172.4h-3.8l0.2-1.3h9.2l-0.2,1.3h-3.8l-2.1,11.9h-1.5L83.2,172.4z"/>
	<path class="st5" d="M87.9,176.9c0.7-1.5,1.9-2.2,3.7-2.2c1.2,0,2.4,0.3,3.5,0.8l-1.6,8.9h-1.1v-0.7c-0.7,0.5-1.5,0.9-2.5,0.9
		c-1.9,0-2.9-1.2-2.9-3.3C86.9,179.9,87.2,178.1,87.9,176.9z M92.4,182.5l1.1-6.3c-0.7-0.2-1.4-0.4-2-0.4c-1.2,0-1.9,0.5-2.4,1.6
		c-0.5,1-0.8,2.7-0.8,3.7c0,1.3,0.5,2.2,1.8,2.2C90.9,183.3,91.8,182.9,92.4,182.5z"/>
	<path class="st5" d="M97.6,176.7c0.8-1.4,2-2.1,3.7-2.1c0.9,0,1.8,0.2,2.7,0.4l-0.3,1.2c-0.8-0.2-1.7-0.4-2.4-0.4
		c-1.1,0-1.9,0.4-2.5,1.5c-0.5,0.9-0.8,2.4-0.8,3.4c0,1.6,0.7,2.4,2.3,2.4c0.7,0,1.5-0.2,2.3-0.5l0.3,1.2c-0.8,0.3-1.7,0.6-2.7,0.6
		c-2.2,0-3.6-1.1-3.6-3.6C96.6,179.7,96.9,178,97.6,176.7z"/>
	<path class="st5" d="M105.5,176.9c0.7-1.4,1.9-2.3,3.7-2.3c2.2,0,3.4,1.2,3.4,3.6c0,1.2-0.3,2.7-0.9,4c-0.7,1.4-1.9,2.3-3.7,2.3
		c-2.2,0-3.4-1.2-3.4-3.6C104.5,179.8,104.8,178.2,105.5,176.9z M110.4,181.5c0.5-1,0.7-2.3,0.7-3.3c0-1.3-0.5-2.3-2-2.3
		c-1.1,0-1.9,0.6-2.4,1.7c-0.5,1-0.7,2.3-0.7,3.3c0,1.3,0.5,2.3,2,2.3C109.1,183.2,109.9,182.7,110.4,181.5z"/>
	<path class="st5" d="M115.7,174.8h1.1l0,0.8c0.9-0.6,1.9-1,2.8-1c0.9,0,1.7,0.4,2.1,1.2c1.1-0.7,2.1-1.2,3.1-1.2
		c1.3,0,2.3,0.7,2.3,2.3c0,0.3,0,0.6-0.1,1l-1.1,6.4h-1.4l1.1-6.4c0.1-0.3,0.1-0.6,0.1-0.8c0-0.8-0.4-1.2-1.3-1.2
		c-0.8,0-1.6,0.4-2.5,0.9c0,0.3,0,0.7-0.1,1.1l-1.1,6.4h-1.4l1.1-6.4c0-0.3,0.1-0.6,0.1-0.8c0-0.8-0.3-1.2-1.3-1.2
		c-0.8,0-1.6,0.4-2.4,0.8l-1.3,7.6H114L115.7,174.8z"/>
	<path class="st5" d="M129.7,176.9c0.7-1.5,1.9-2.2,3.7-2.2c1.2,0,2.4,0.3,3.5,0.8l-1.6,8.9h-1.1v-0.7c-0.7,0.5-1.5,0.9-2.5,0.9
		c-1.9,0-2.9-1.2-2.9-3.3C128.7,179.9,129,178.1,129.7,176.9z M134.2,182.5l1.1-6.3c-0.7-0.2-1.4-0.4-2-0.4c-1.2,0-1.9,0.5-2.4,1.6
		c-0.5,1-0.8,2.7-0.8,3.7c0,1.3,0.5,2.2,1.8,2.2C132.7,183.3,133.6,182.9,134.2,182.5z"/>
</g>
</svg>
