<svg id="Layer_1" data-name="Layer 1" xmlns="http://www.w3.org/2000/svg" viewBox="0 0 735 479"><defs><style>.cls-1{fill:#4d4d4d;}.cls-2{fill:#06a1f9;}.cls-3{fill:none;stroke:#06a1f9;stroke-miterlimit:10;stroke-width:2px;}.cls-4{fill:#e6e6e6;}.cls-5{font-size:20.51px;fill:#333;font-family:Gesta-MediumItalic, Gesta;font-style:italic;}.cls-6{letter-spacing:-0.01em;}.cls-7{letter-spacing:0em;}.cls-8{letter-spacing:0em;}.cls-9{letter-spacing:-0.01em;}.cls-10{letter-spacing:-0.01em;}</style></defs><title>Artboard 1</title><path class="cls-1" d="M683.17,104v7.7c-5.39,5.39-11.55,10-16.94,15.4-3.85,3.85-9.24,6.16-10.78,10.78-2.31,4.62-1.54,10-1.54,15.4,0,4.62,6.93,10,11.55,8.47a47.14,47.14,0,0,0-3.08-4.62c6.16,4.62,6.16,5.39,1.54,8.47-1.54.77-5.39.77-6.16,1.54-3.85,6.93-11.55,6.16-16.94,10a63.72,63.72,0,0,0-11.55,8.47c-1.54,1.54-3.08,5.39-2.31,6.93,5.39,10,.77,16.94-3.85,23.87a48.61,48.61,0,0,0-6.93-3.08c-.77,0-.77.77-1.54.77,14.63,10.78,4.62,21.56,2.31,32.33h-2.31V231.75h-1.54c0,.77-.77,1.54-.77,3.08-1.54-2.31-2.31-3.08-3.85-5.39-1.54,2.31-2.31,3.85-1.54,4.62.77,3.85,2.31,8.47,3.08,12.32a16.83,16.83,0,0,0,2.31,3.85c6.93,2.31,6.93,9.24,10,13.86,3.08,6.16,1.54,9.24-4.62,12.32-1.54.77-2.31,3.08-3.85,4.62,2.31.77,3.85.77,6.16,1.54-3.08,2.31-4.62,4.62-6.93,5.39-10,3.08-12.32,16.17-22.33,19.25-.77,0-1.54,2.31-1.54,3.08-.77,7.7-6.93,12.32-11.55,16.94-6.16,6.16-10.78,13.09-11.55,22.33a48.45,48.45,0,0,0,6.93,25.4c3.85,6.16,8.47,11.55,11.55,18.48,5.39,11.55,11.55,22.33,10,36.18-.77,6.93-2.31,11.55-10,15.4l6.93-6.93-.77-.77-6.93,2.31c-2.31-3.08-4.62-6.93-6.93-9.24-3.85-3.85-9.24-5.39-12.32-10-6.16-8.47-13.09-16.94-11.55-29.25.77-2.31-1.54-5.39-3.08-7.7-3.08-3.08-6.93-5.39-10.78-8.47s-7.7-5.39-12.32,0c-3.08,3.08-6.93,5.39-12.32,2.31-3.85-3.08-9.24-5.39-13.86-5.39-5.39-.77-11.55.77-17.71,1.54l-1.54-3.08c-4.62,1.54-6.93,3.08-10.78,3.08-4.62-.77-10-.77-13.09,6.16a37.53,37.53,0,0,0,5.39-2.31c.77,0,.77.77,1.54.77-.77,2.31-2.31,4.62-3.85,7.7a10.94,10.94,0,0,0,4.62,1.54,25.63,25.63,0,0,0,4.62,2.31c-4.62,3.08-4.62,3.08-13.09-2.31-.77,2.31-2.31,3.85-3.85,6.93a32.09,32.09,0,0,0-1.54-4.62c-6.16,6.16-10.78,5.39-14.63-1.54-1.54-2.31-5.39-3.08-8.47-4.62,0,.77-.77.77-.77,1.54,1.54.77,2.31,1.54,3.85,1.54-6.16.77-12.32-.77-17.71-.77-6.16,0-13.09.77-18.48,3.85-11.55,6.16-21.56,14.63-33.1,21.56-3.85,2.31-5.39,4.62-5.39,9.24v23.1a132.66,132.66,0,0,1-16.17-5.39c-7.7-3.08-12.32-8.47-12.32-16.94,0-1.54-1.54-3.08-2.31-4.62-3.85-6.16-9.24-10.78-11.55-18.48-2.31-8.47-9.24-13.86-18.48-16.17-5.39-1.54-8.47,0-10.78,4.62a67.7,67.7,0,0,0-4.62,7.7c-4.62-2.31-8.47-4.62-12.32-6.16-4.62-2.31-7.7-6.16-7.7-11.55-.77-13.86-15.4-17.71-20.79-28.48H238.2c-6.16-.77-13.09-1.54-19.25-2.31l-2.31,6.93c-6.93-.77-13.09-2.31-20-2.31-23.1-2.31-40.8-17.71-59.28-28.48-3.08-1.54-6.16-3.85-9.24-3.85-5.39-.77-11.55-1.54-16.94-2.31a13.27,13.27,0,0,1-4.62-4.62c-.77-6.93-2.31-13.09-10-16.17-.77,0-.77-1.54-1.54-1.54-6.16-6.16-10.78-13.09-19.25-15.4-3.85-.77-3.85-2.31-3.85-5.39,0-4.62-.77-8.47-1.54-13.09-.77-3.08-3.08-6.16-4.62-8.47-2.31-4.62-3.85-8.47,0-11.55-1.54-4.62-3.08-8.47-4.62-13.09-1.54-6.16-.77-12.32-3.85-17.71A21.34,21.34,0,0,1,55,189.41c.77-3.08,1.54-7.7-3.08-9.24v-2.31c5.39-7.7,11.55-16.17,9.24-26.94-.77-3.85.77-8.47,2.31-12.32C69.61,124,77.3,110.12,82.69,95.49,85,89.33,84.23,81.63,85,74.71V60.08c7.7,2.31,12.32,10.78,20.79,6.16,0,1.54.77,2.31.77,3.85h1.54c-.77-4.62-1.54-8.47-2.31-13.09h2.31c6.93,2.31,13.86,3.85,20.79,6.16,80.06,20,160.9,32.33,244,31.56,4.62,0,9.24.77,10-7.7,1.54,3.08,3.08,3.85,3.08,5.39q0,6.93,6.93,6.93c6.93.77,13.09,2.31,20,3.85,3.08.77,6.93,3.08,10,3.08,5.39.77,10.78,0,16.94,0,0,.77.77,1.54.77,3.08-10.78,2.31-18.48,9.24-23.87,19.25,4.62-1.54,7.7-3.08,11.55-4.62v4.62c13.09,1.54,19.25-11.55,30.79-13.86l-4.62,6.93c3.08,1.54,6.93,1.54,7.7,3.08,3.85,5.39,7.7,3.08,12.32,1.54s9.24-3.08,14.63-5.39c.77,9.24,6.16,3.08,10,3.85.77,2.31,1.54,5.39,2.31,7.7-16.17,1.54-33.87.77-38.49,23.87,2.31-3.85,4.62-6.16,6.93-9.24-1.54,10-3.08,18.48-4.62,28.48-.77,10,.77,19.25,8.47,26.17a19,19,0,0,0,6.93-26.17c-.77-1.54-2.31-3.08-2.31-5.39-1.54-13.09,6.16-23.1,13.86-32.33.77-.77,3.85-.77,5.39-.77,2.31,0,3.85,1.54,6.16,2.31,8.47,3.08,11.55,15.4,5.39,22.33-.77,1.54-.77,3.08-1.54,4.62.77,0,1.54.77,2.31.77,1.54-1.54,2.31-3.85,3.85-5.39.77-.77,3.08-2.31,4.62-1.54,3.85,1.54,8.47,17.71,6.16,21.56a115.89,115.89,0,0,0-7.7,13.09c6.93,3.08,11.55,5.39,17.71.77s13.86-8.47,20-13.09c5.39-4.62,13.09-8.47,6.16-18.48,5.39-.77,9.24-1.54,13.09-2.31,4.62-.77,9.24-1.54,13.86-3.85,1.54-.77,3.85-6.16,3.08-6.93-3.85-4.62-.77-6.93,2.31-10a16.11,16.11,0,0,0,3.08-4.62c2.31-4.62,5.39-6.16,10.78-7.7,10.78-2.31,22.33-3.08,31.56-11.55,4.62-4.62,6.93-9.24,6.16-13.86-.77-8.47,1.54-16.17,4.62-23.1,3.08,0,5.39,0,6.93-.77,4.62-2.31,8.47-1.54,10,3.85,1.54,4.62,2.31,9.24,3.85,13.09C673.16,98.57,676.24,103.19,683.17,104Z"/><circle class="cls-2" cx="489.13" cy="184.13" r="9.01" transform="translate(13.06 399.8) rotate(-45)"/><circle class="cls-2" cx="650.13" cy="169.13" r="9.01" transform="translate(70.83 509.25) rotate(-45)"/><circle class="cls-2" cx="80.13" cy="127.13" r="9.01" transform="translate(-66.42 93.89) rotate(-45)"/><line class="cls-3" x1="489" y1="184" x2="489" y2="334"/><line class="cls-3" x1="650" y1="169" x2="650" y2="213"/><line class="cls-3" x1="80" y1="127" x2="80" y2="220"/><rect class="cls-4" x="411.77" y="311" width="158" height="38"/><rect class="cls-4" x="581.62" y="213" width="136" height="38"/><rect class="cls-4" x="20" y="220" width="117" height="38"/><text class="cls-5" transform="translate(50.6 245.23)"><tspan class="cls-6">E</tspan><tspan x="9.72" y="0">ugene</tspan></text><text class="cls-5" transform="translate(437.83 337.23)">G<tspan class="cls-7" x="11.46" y="0">r</tspan><tspan class="cls-8" x="18.42" y="0">and Rapids</tspan></text><text class="cls-5" transform="translate(605.98 237.23)"><tspan class="cls-9">P</tspan><tspan class="cls-7" x="10.64" y="0">r</tspan><tspan class="cls-9" x="17.6" y="0">o</tspan><tspan x="27.07" y="0">viden</tspan><tspan class="cls-10" x="69.93" y="0">c</tspan><tspan class="cls-8" x="78.06" y="0">e</tspan></text></svg>